<?xml version="1.0" encoding="UTF-8" standalone="no"?>
<svg width="44px" height="44px" viewBox="0 0 44 44" version="1.1" xmlns="http://www.w3.org/2000/svg" xmlns:xlink="http://www.w3.org/1999/xlink" xmlns:sketch="http://www.bohemiancoding.com/sketch/ns">
    <!-- Generator: Sketch 3.2.2 (9983) - http://www.bohemiancoding.com/sketch -->
    <title>Slice 1</title>
    <desc>Created with Sketch.</desc>
    <defs></defs>
    <g id="Page-1" stroke="none" stroke-width="1" fill="none" fill-rule="evenodd" sketch:type="MSPage">
        <rect id="ACL-2" fill="#CEAE71" fill-opacity="0.3" x="0.5" y="0.5" width="42.75" height="42.75" rx="40"></rect>
        <rect id="ACL" fill="#CEAE71" x="4" y="4" width="36" height="36" rx="40"></rect>
        <g id="ACL" transform="translate(8.750000, 6.471154)" fill="#FFFFFF">
            <path d="M17.8648076,16.1836154 C20.3497884,14.6358462 22.0192308,11.905327 22.0192308,8.76923076 C22.0192308,3.93409616 18.0851346,0 13.25,0 C8.41486538,0 4.48076924,3.93409616 4.48076924,8.76923076 C4.48076924,11.9009424 6.14253846,14.641327 8.61984616,16.1923846 C4.24948076,17.804827 0.94786538,21.6216346 0.08738462,26.3076924 L2.3224423,26.3076924 C3.43723076,21.2982692 7.90953846,17.5384616 13.25,17.5384616 C18.5904616,17.5384616 23.0627692,21.2982692 24.1775576,26.3076924 L26.4126154,26.3076924 C25.5499424,21.6161538 22.2439424,17.7927692 17.8648076,16.1836154 L17.8648076,16.1836154 L17.8648076,16.1836154 Z M6.67307692,8.76923076 C6.67307692,5.1420577 9.6228269,2.1923077 13.25,2.1923077 C16.877173,2.1923077 19.826923,5.1420577 19.826923,8.76923076 C19.826923,12.3964038 16.877173,15.3461538 13.25,15.3461538 C9.6228269,15.3461538 6.67307692,12.3964038 6.67307692,8.76923076 L6.67307692,8.76923076 L6.67307692,8.76923076 Z" id="Fill-1"></path>
            <path d="M17.8757692,22.255577 L16.3258076,20.7056154 L12.473923,24.4906346 L10.10075,22.526327 L8.65163462,24.1716538 L12.5703846,27.4951924" id="Fill-2"></path>
        </g>
    </g>
</svg>