<?xml version="1.0" encoding="UTF-8" standalone="no"?>
<svg width="24px" height="25px" viewBox="0 0 24 25" version="1.1" xmlns="http://www.w3.org/2000/svg" xmlns:xlink="http://www.w3.org/1999/xlink" xmlns:sketch="http://www.bohemiancoding.com/sketch/ns">
    <!-- Generator: Sketch 3.3.2 (12043) - http://www.bohemiancoding.com/sketch -->
    <title>Icon/ACL</title>
    <desc>Created with Sketch.</desc>
    <defs></defs>
    <g id="Visual-Designs" stroke="none" stroke-width="1" fill="none" fill-rule="evenodd" sketch:type="MSPage">
        <g id="4.0-Icons" sketch:type="MSArtboardGroup" transform="translate(-446.000000, -438.000000)" fill="#333333">
            <g id="Icons" sketch:type="MSLayerGroup" transform="translate(400.000000, 145.000000)">
                <g id="Icon/ACL" transform="translate(46.000000, 293.923077)" sketch:type="MSShapeGroup">
                    <path d="M15.8861538,13.6283077 C17.9787692,12.3249231 19.3846154,10.0255385 19.3846154,7.38461538 C19.3846154,3.31292308 16.0716923,0 12,0 C7.92830769,0 4.61538462,3.31292308 4.61538462,7.38461538 C4.61538462,10.0218462 6.01476923,12.3295385 8.10092308,13.6356923 C4.42061538,14.9935385 1.64030769,18.2076923 0.915692308,22.1538462 L2.79784615,22.1538462 C3.73661538,17.9353846 7.50276923,14.7692308 12,14.7692308 C16.4972308,14.7692308 20.2633846,17.9353846 21.2021538,22.1538462 L23.0843077,22.1538462 C22.3578462,18.2030769 19.5738462,14.9833846 15.8861538,13.6283077 L15.8861538,13.6283077 Z M6.46153846,7.38461538 C6.46153846,4.33015385 8.94553846,1.84615385 12,1.84615385 C15.0544615,1.84615385 17.5384615,4.33015385 17.5384615,7.38461538 C17.5384615,10.4390769 15.0544615,12.9230769 12,12.9230769 C8.94553846,12.9230769 6.46153846,10.4390769 6.46153846,7.38461538 L6.46153846,7.38461538 Z" id="Fill-1"></path>
                    <path d="M15.8953846,18.7415385 L14.5901538,17.4363077 L11.3464615,20.6236923 L9.348,18.9695385 L8.12769231,20.3550769 L11.4276923,23.1538462" id="Fill-2"></path>
                </g>
            </g>
        </g>
    </g>
</svg>