<?xml version="1.0" encoding="utf-8"?>
<!-- Generator: Adobe Illustrator 17.0.0, SVG Export Plug-In . SVG Version: 6.00 Build 0)  -->
<!DOCTYPE svg PUBLIC "-//W3C//DTD SVG 1.1//EN" "http://www.w3.org/Graphics/SVG/1.1/DTD/svg11.dtd">
<svg version="1.1" id="Layer_1" xmlns="http://www.w3.org/2000/svg" xmlns:xlink="http://www.w3.org/1999/xlink" x="0px" y="0px"
	 width="40px" height="50px" viewBox="0 0 50 50" enable-background="new 0 0 50 50" xml:space="preserve">
<path fill-opacity="0.6" fill="#FF9947" d="M42.184,23.327c0.01-0.296,0.015-0.567,0.015-0.78c0-3.561-1.387-6.91-3.905-9.428
	c-2.518-2.518-5.867-3.905-9.428-3.905c-2.76,0-5.474,0.939-7.849,2.716c-1.621,1.213-2.984,2.759-3.966,4.476
	c-1.077-0.56-2.27-0.853-3.505-0.853c-1.979,0-3.881,0.918-5.356,2.584c-0.983,1.111-1.684,2.465-2.025,3.871
	c-1.671,0.661-3.157,1.793-4.236,3.239C0.666,26.938,0,28.948,0,31.061c0,5.362,4.363,9.725,9.725,9.725v-0.023h31.549v0.013
	c4.811,0,8.726-3.914,8.726-8.726C50,27.563,46.551,23.812,42.184,23.327z M41.621,38.746v-0.004H9.126
	c-3.969-0.307-7.106-3.635-7.106-7.681c0-3.339,2.109-6.308,5.263-7.36c0.01-0.003,0.02-0.008,0.029-0.013
	c0.313-0.088,0.558-0.349,0.614-0.684c0.447-2.697,2.792-5.428,5.619-5.428c1.16,0,2.267,0.351,3.211,1.014
	c0.094,0.087,0.206,0.157,0.334,0.205l0,0c0.494,0.183,1.044-0.046,1.266-0.523c1.916-4.125,6.197-7.035,10.509-7.035
	c6.238,0,11.313,5.075,11.313,11.313c0,0.426-0.022,1.088-0.062,1.668c-0.035,0.519,0.329,0.981,0.842,1.066l0,0
	c0.09,0.015,0.179,0.017,0.265,0.009v0.003c3.697,0,6.756,3.059,6.756,6.756C47.98,35.631,45.158,38.565,41.621,38.746z"/>
</svg>
