<?xml version="1.0" encoding="UTF-8" standalone="no"?>
<svg width="15px" height="15px" viewBox="0 0 12 12" version="1.1" xmlns="http://www.w3.org/2000/svg" xmlns:xlink="http://www.w3.org/1999/xlink">
    <!-- Generator: Sketch 3.7 (28169) - http://www.bohemiancoding.com/sketch -->
    <title>C_green</title>
    <desc>Created with Sketch.</desc>
    <defs>
        <polygon id="path-1" points="0 6.78045 5.69925 6.78045 5.69925 0 0 0"></polygon>
    </defs>
    <g id="Symbols" stroke="none" stroke-width="1" fill="none" fill-rule="evenodd">
        <g id="Group" transform="translate(-400.000000, -53.000000)">
            <g id="C_green" transform="translate(400.000000, 53.000000)">
                <g id="Group-2">
                    <circle id="Oval-31" fill="#7ED321" cx="6" cy="6" r="6"></circle>
                    <g id="Page-1" transform="translate(3.000000, 3.000000)">
                        <mask id="mask-2" fill="white">
                            <use xlink:href="#path-1"></use>
                        </mask>
                        <g id="Clip-2"></g>
                        <path d="M2.78944598,0 C3.8309646,0 4.5916568,0.344519016 5.07297013,1.03428083 C5.3378734,1.42150283 5.48045795,1.81089617 5.5,2.20101329 L4.19430188,2.20101329 C4.11034347,1.9013686 4.00467167,1.67482563 3.87366759,1.52210817 C3.64133439,1.25069088 3.29609159,1.11534412 2.84011054,1.11534412 C2.37399658,1.11534412 2.0070404,1.3064219 1.73851823,1.690025 C1.46999605,2.07290433 1.33609685,2.61501513 1.33609685,3.31635742 C1.33609685,4.01697592 1.47795763,4.54243979 1.76095539,4.89130149 C2.04467693,5.24088696 2.40439532,5.4153178 2.8415581,5.4153178 C3.28957758,5.4153178 3.63120147,5.26549546 3.86642979,4.96585077 C3.99598631,4.80444795 4.10455323,4.56270562 4.18995921,4.24062377 L5.48769575,4.24062377 C5.37623371,4.92170022 5.08961705,5.47611528 4.62929333,5.90314515 C4.16969338,6.33017502 3.57981313,6.54368996 2.86110014,6.54368996 C1.97157521,6.54368996 1.27240426,6.25490196 0.762863535,5.67804974 C0.254046585,5.09902619 0,4.30431636 0,3.29464403 C0,2.20390841 0.289511778,1.36215291 0.868535334,0.771548888 C1.37156205,0.256941703 2.01210686,0 2.78944598,0 Z" id="Fill-1" fill="#FFFFFF" mask="url(#mask-2)"></path>
                    </g>
                </g>
            </g>
        </g>
    </g>
</svg>