<?xml version="1.0" encoding="UTF-8" standalone="no"?>
<svg width="40px" height="40px" viewBox="0 0 44 44" version="1.1" xmlns="http://www.w3.org/2000/svg" xmlns:xlink="http://www.w3.org/1999/xlink" xmlns:sketch="http://www.bohemiancoding.com/sketch/ns">
    <title>Slice 1</title>
    <desc>Created with Sketch.</desc>
    <defs></defs>
    <g id="Page-1" stroke="none" stroke-width="1" fill="none" fill-rule="evenodd" sketch:type="MSPage">
        <rect id="Rectangle-2" fill-opacity="0.3" fill="#CEAE71" sketch:type="MSShapeGroup" x="0" y="0" width="44" height="44" rx="8"></rect>
        <rect id="Rectangle-1" fill="#CEAE71" sketch:type="MSShapeGroup" x="4" y="4" width="36" height="36" rx="6"></rect>
        <path d="M32.5694004,27.2308558 L32.5694004,24.9970323 L22.7008821,24.9970323 L22.7008821,27.2308558 L24.8485896,27.2308558 C25.4795112,27.2308558 25.9961873,27.7210689 25.9961873,28.3030271 L25.9961873,28.3333975 L25.9961873,33.613407 C25.9961873,34.2024295 25.4795113,34.684099 24.8485896,34.684099 L24.8160589,34.684099 L19.1680315,34.684099 C18.5371098,34.684099 18.0120909,34.2024295 18.0120909,33.613407 L18.0120909,33.5823423 L18.0120909,28.3030271 C18.0120909,27.7210689 18.5371098,27.2308558 19.1680315,27.2308558 L19.1922516,27.2308558 L21.3074284,27.2308558 L21.3074284,24.9970323 L11.6847339,24.9970323 L11.6847339,27.2308558 L13.8324414,27.2308558 C14.4558285,27.2308558 14.980039,27.7210689 14.980039,28.3030271 L14.980039,28.3333975 L14.980039,33.613407 C14.980039,34.2024295 14.4558285,34.684099 13.8324414,34.684099 L13.7999106,34.684099 L8.14357269,34.684099 C7.50508428,34.684099 6.98840828,34.2024295 6.98840828,33.613407 L6.98840828,33.5823423 L6.98840825,28.3030271 C6.98840825,27.7210689 7.50508425,27.2308558 8.14357266,27.2308558 L8.17691182,27.2308558 L10.2920563,27.2308558 L10.2920563,24.3543333 L10.2920563,24.3465747 C10.2920563,23.9870811 10.6029737,23.6961171 10.9797288,23.6961171 L21.3074284,23.6961171 L21.3074284,19.181707 L17.3403604,19.181707 C16.701872,19.181707 16.1927628,18.6915543 16.1927628,18.0947732 L16.1927628,18.0721615 L16.1927628,9.38659301 C16.1927628,8.78981188 16.701872,8.315901 17.3403604,8.315901 L17.3728911,8.315901 L26.6679501,8.31590103 C27.3071823,8.31590103 27.8238906,8.78981191 27.8238906,9.38659304 L27.8238906,9.41765777 L27.8238906,18.0947732 C27.8238906,18.6915543 27.3072146,19.181707 26.6679501,19.181707 L26.6354517,19.181707 L22.7008821,19.181707 L22.7008821,23.6961171 L33.2578167,23.6961171 L33.2744701,23.6961171 C33.6511928,23.6961171 33.9537998,23.9870811 33.9537998,24.3465747 L33.9537998,27.2308558 L35.8647702,27.2308558 C36.4956595,27.2308558 37.0115917,27.7210689 37.0115917,28.3030271 L37.0115917,28.3333975 L37.0115917,33.613407 C37.0115917,34.2024295 36.4956595,34.684099 35.8647702,34.684099 L35.831431,34.684099 L30.1841474,34.684099 C29.5365723,34.684099 29.0282068,34.2024295 29.0282068,33.613407 L29.0282068,33.5823423 L29.0282069,28.3030271 C29.0282069,27.7210689 29.5365724,27.2308558 30.1841474,27.2308558 L30.2083676,27.2308558 L32.5694004,27.2308558 L32.5694004,27.2308558 Z M34.708765,29.3892665 L34.708765,29.3892665 L31.3400879,29.3892665 L31.3400879,32.5342318 L34.708765,32.5342318 L34.708765,29.3892665 L34.708765,29.3892665 Z M12.6689664,29.3892665 L12.6689664,29.3892665 L9.30782372,29.3892665 L9.30782372,32.5342318 L12.6689341,32.5342318 L12.6689341,29.3892665 L12.6689664,29.3892665 L12.6689664,29.3892665 Z M23.6843062,29.3892665 L23.6843062,29.3892665 L20.323972,29.3892665 L20.323972,32.5342318 L23.6843386,32.5342318 L23.6843386,29.3892665 L23.6843062,29.3892665 L23.6843062,29.3892665 Z M25.5210963,10.4735268 L25.5210963,10.4735268 L18.5045791,10.4735268 L18.5045791,17.0233869 L25.5210963,17.0233869 L25.5210963,10.4735268 L25.5210963,10.4735268 Z" id="Shape" fill="#FFFFFF" sketch:type="MSShapeGroup"></path>
    </g>
</svg>