<?xml version="1.0" encoding="UTF-8" standalone="no"?>
<svg width="31px" height="31px" viewBox="0 0 31 31" version="1.1" xmlns="http://www.w3.org/2000/svg" xmlns:xlink="http://www.w3.org/1999/xlink" xmlns:sketch="http://www.bohemiancoding.com/sketch/ns">
    <!-- Generator: Sketch 3.2.2 (9983) - http://www.bohemiancoding.com/sketch -->
    <title>elb-icon</title>
    <desc>Created with Sketch.</desc>
    <defs></defs>
    <g id="Page-1" stroke="none" stroke-width="1" fill="none" fill-rule="evenodd" sketch:type="MSPage">
        <path d="M26.5148718,22.2565865 L26.5148718,19.7150892 L16.6539739,19.7150892 L16.6539739,22.2565865 L18.800023,22.2565865 C19.4304574,22.2565865 19.9467345,22.8143187 19.9467345,23.4764324 L19.9467345,23.5109858 L19.9467345,29.5182331 C19.9467345,30.1883841 19.4304574,30.736396 18.800023,30.736396 L18.7675174,30.736396 L13.1238513,30.736396 C12.4934168,30.736396 11.9688034,30.1883842 11.9688034,29.5182331 L11.9688034,29.4828897 L11.9688034,23.4764324 C11.9688034,22.8143187 12.4934168,22.2565865 13.1238513,22.2565865 L13.1480528,22.2565865 L15.2615962,22.2565865 L15.2615962,19.7150892 L5.64633216,19.7150892 L5.64633216,22.2565865 L7.79238125,22.2565865 C8.41528705,22.2565865 8.93909273,22.8143187 8.93909273,23.4764324 L8.93909273,23.5109858 L8.93909273,29.5182331 C8.93909273,30.1883841 8.41528705,30.736396 7.79238125,30.736396 L7.75987564,30.736396 L2.10790544,30.736396 C1.46991006,30.736396 0.953633032,30.1883842 0.953633032,29.5182331 L0.953633032,29.4828897 L0.953633,23.4764324 C0.953633,22.8143187 1.46991003,22.2565865 2.10790541,22.2565865 L2.14121883,22.2565865 L4.25472997,22.2565865 L4.25472997,18.9838686 L4.25472997,18.9750413 C4.25472997,18.5660332 4.56540738,18.2349935 4.94187152,18.2349935 L15.2615962,18.2349935 L15.2615962,13.0987948 L11.2975915,13.0987948 C10.6595961,13.0987948 10.15088,12.5411314 10.15088,11.8621531 L10.15088,11.836427 L10.15088,1.95455889 C10.15088,1.2755806 10.6595961,0.736396 11.2975915,0.736396 L11.3300971,0.736396 L20.6179786,0.736396034 C21.2567172,0.736396034 21.7730265,1.27558064 21.7730265,1.95455892 L21.7730265,1.98990233 L21.7730265,11.8621531 C21.7730265,12.5411314 21.2567495,13.0987948 20.6179786,13.0987948 L20.5855053,13.0987948 L16.6539739,13.0987948 L16.6539739,18.2349935 L27.2027565,18.2349935 L27.2193971,18.2349935 C27.5958289,18.2349935 27.8982022,18.5660332 27.8982022,18.9750413 L27.8982022,22.2565865 L29.807697,22.2565865 C30.4380991,22.2565865 30.953633,22.8143187 30.953633,23.4764324 L30.953633,23.5109858 L30.953633,29.5182331 C30.953633,30.1883841 30.4380991,30.736396 29.807697,30.736396 L29.7743836,30.736396 L24.1314607,30.736396 C23.4843857,30.736396 22.9764128,30.1883842 22.9764128,29.5182331 L22.9764128,29.4828897 L22.9764128,23.4764324 C22.9764128,22.8143187 23.4843857,22.2565865 24.1314607,22.2565865 L24.1556622,22.2565865 L26.5148718,22.2565865 L26.5148718,22.2565865 Z M28.6525845,24.7122842 L28.6525845,24.7122842 L25.2865086,24.7122842 L25.2865086,28.2904186 L28.6525845,28.2904186 L28.6525845,24.7122842 L28.6525845,24.7122842 Z M6.62980471,24.7122842 L6.62980471,24.7122842 L3.27125745,24.7122842 L3.27125745,28.2904186 L6.62977241,28.2904186 L6.62977241,24.7122842 L6.62980471,24.7122842 L6.62980471,24.7122842 Z M17.6366386,24.7122842 L17.6366386,24.7122842 L14.2788992,24.7122842 L14.2788992,28.2904186 L17.636671,28.2904186 L17.6366709,24.7122842 L17.6366386,24.7122842 L17.6366386,24.7122842 Z M19.4720103,3.19120065 L19.4720103,3.19120065 L12.4609112,3.19120065 L12.4609112,10.6432002 L19.4720103,10.6432002 L19.4720103,3.19120065 L19.4720103,3.19120065 Z" id="Shape" fill="#333333" sketch:type="MSShapeGroup"></path>
    </g>
</svg>