<?xml version="1.0" encoding="UTF-8" standalone="no"?>
<svg width="24px" height="25px" viewBox="0 0 24 25" version="1.1" xmlns="http://www.w3.org/2000/svg" xmlns:xlink="http://www.w3.org/1999/xlink" xmlns:sketch="http://www.bohemiancoding.com/sketch/ns">
    <!-- Generator: Sketch 3.3.2 (12043) - http://www.bohemiancoding.com/sketch -->
    <title>Icon/NetworkInterface</title>
    <desc>Created with Sketch.</desc>
    <defs></defs>
    <g id="Visual-Designs" stroke="none" stroke-width="1" fill="none" fill-rule="evenodd" sketch:type="MSPage">
        <g id="4.0-Icons" sketch:type="MSArtboardGroup" transform="translate(-447.000000, -288.000000)" fill="#333333">
            <g id="Icons" sketch:type="MSLayerGroup" transform="translate(400.000000, 145.000000)">
                <g id="Icon/NetworkInterface" transform="translate(47.000000, 143.000000)" sketch:type="MSShapeGroup">
                    <path d="M15,7.5 L13,7.5 L13,11.5 L15,11.5 L15,7.5 Z M11,7.5 L9,7.5 L9,11.5 L11,11.5 L11,7.5 Z M17,14.5 L14,14.5 L14,16.5 L9.996,16.5 L9.996,14.5 L7,14.5 L7,7.5 L5,7.5 L5,16.5 L8,16.5 L8,18.5 L15.996,18.5 L15.996,16.5 L18.992,16.5 L18.992,7.5 L17,7.5 L17,14.5 Z M22,21.5 C22,22.052 21.552,22.5 21,22.5 L3,22.5 C2.447,22.5 2,22.052 2,21.5 L2,3.5 C2,2.949 2.447,2.5 3,2.5 L21,2.5 C21.552,2.5 22,2.949 22,3.5 L22,21.5 Z M21,0.5 L3,0.5 C1.346,0.5 0,1.846 0,3.5 L0,21.5 C0,23.154 1.346,24.5 3,24.5 L21,24.5 C22.654,24.5 24,23.154 24,21.5 L24,3.5 C24,1.846 22.654,0.5 21,0.5 L21,0.5 Z" id="Fill-147"></path>
                </g>
            </g>
        </g>
    </g>
</svg>