<?xml version="1.0" encoding="UTF-8" standalone="no"?>
<svg width="31px" height="31px" viewBox="0 0 31 31" version="1.1" xmlns="http://www.w3.org/2000/svg" xmlns:xlink="http://www.w3.org/1999/xlink" xmlns:sketch="http://www.bohemiancoding.com/sketch/ns">
    <!-- Generator: Sketch 3.2.2 (9983) - http://www.bohemiancoding.com/sketch -->
    <title>Slice 1</title>
    <desc>Created with Sketch.</desc>
    <defs></defs>
    <g id="Page-1" stroke="none" stroke-width="1" fill="none" fill-rule="evenodd" sketch:type="MSPage">
        <g id="group-hover" sketch:type="MSLayerGroup">
            <g id="Page-1" sketch:type="MSShapeGroup">
                <rect id="Rectangle-2" fill="#CEAE71" fill-opacity="0.3" x="0.400000095" y="0.400000095" width="30" height="30" rx="10"></rect>
                <rect id="Rectangle-1" fill="#CEAE71" x="3" y="3" width="25" height="25" rx="8"></rect>
                <g id="group-icon" transform="translate(5.000000, 6.000000)" stroke="#FFFFFF" stroke-width="1.0781">
                    <ellipse id="Oval" cx="11.4381667" cy="5.1039" rx="4.33583333" ry="4.257"></ellipse>
                    <path d="M16.5678333,11.4786 C15.27075,10.1601 13.4520833,9.3402 11.4381667,9.3402" id="Shape"></path>
                    <path d="M11.4381667,9.3402 C7.50016667,9.3402 4.30741667,12.4749 4.30741667,16.3413" id="Shape"></path>
                    <path d="M21.54075,13.5999 C21.54075,13.4406 21.4151667,13.3092 21.2538333,13.2984 L20.7368333,13.2633 C20.636,13.1823 20.5626667,13.1238 20.4618333,13.0437 C20.4141667,12.9006 20.3555,12.7611 20.2849167,12.627 C20.29775,12.4992 20.3069167,12.4074 20.31975,12.2796 L20.6598333,11.8935 C20.7661667,11.7738 20.7588333,11.5929 20.64425,11.4813 L20.2656667,11.1105 C20.1510833,10.998 19.96775,10.9926 19.8458333,11.097 L19.4535,11.4318 C19.3545,11.5164 19.21425,11.5263 19.0978333,11.466 C19.0309167,11.4318 18.9630833,11.3994 18.8915833,11.3706 C18.821,11.3418 18.7495,11.3175 18.678,11.2959 C18.5524167,11.2581 18.4598333,11.1537 18.4506667,11.025 L18.4130833,10.5156 C18.4011667,10.3572 18.2673333,10.2348 18.1050833,10.2348 L17.56975,10.2357 C17.4075,10.2357 17.2736667,10.359 17.2626667,10.5174 L17.2113333,11.2383 C17.2104167,11.2383 17.2104167,11.2392 17.2104167,11.2392 C16.9904167,11.2905 16.77775,11.3679 16.577,11.4696 C16.4468333,11.457 16.3533333,11.448 16.2231667,11.4345 L15.83175,11.1015 C15.7098333,10.9971 15.5255833,11.0043 15.4119167,11.1168 L15.03425,11.4885 C14.9196667,11.601 14.9141667,11.781 15.0195833,11.9007 L15.356,12.2805 C15.4394167,12.375 15.4559167,12.5091 15.3954167,12.6198 C15.3569167,12.6909 15.32025,12.7647 15.2881667,12.8412 C15.2588333,12.9096 15.2340833,12.9789 15.2120833,13.0491 C15.1735833,13.1724 15.06725,13.2633 14.9361667,13.2723 L14.4283333,13.3074 C14.267,13.3191 14.1414167,13.4505 14.1423333,13.6098 L14.14325,14.1345 C14.14325,14.2929 14.2688333,14.4252 14.4301667,14.436 L15.1525,14.4846 C15.1525,14.4846 15.1534167,14.4855 15.1543333,14.4855 C15.2065833,14.7051 15.2863333,14.9175 15.39175,15.1173 C15.3789167,15.2451 15.36975,15.3369 15.3569167,15.4647 L15.026,15.8391 C14.9196667,15.9588 14.9260833,16.1397 15.0415833,16.2513 L15.4201667,16.6221 C15.53475,16.7346 15.7180833,16.74 15.84,16.6356 L16.2185833,16.3116 C16.3175833,16.227 16.45875,16.2171 16.57425,16.2774 C16.643,16.3125 16.7135833,16.3458 16.786,16.3755 C16.8593333,16.4052 16.9335833,16.4304 17.0078333,16.4529 C17.1334167,16.4907 17.226,16.5951 17.2360833,16.7238 L17.2718333,17.2161 C17.28375,17.3745 17.4175833,17.4978 17.5798333,17.4969 L18.11425,17.496 C18.2765,17.496 18.4103333,17.3727 18.4213333,17.2134 L18.4708333,16.506 C18.47175,16.506 18.47175,16.5051 18.47175,16.5051 C18.766,16.4358 19.0465,16.3206 19.30225,16.164 L19.3031667,16.164 L19.8513333,16.6302 C19.9741667,16.7346 20.1575,16.7274 20.2711667,16.6149 L20.6488333,16.2432 C20.7634167,16.1307 20.7689167,15.9498 20.6625833,15.8301 L20.3270833,15.4521 C20.2409167,15.3549 20.2308333,15.2172 20.2913333,15.1029 C20.32525,15.0381 20.3573333,14.9724 20.3866667,14.904 C20.41875,14.8275 20.44625,14.751 20.4691667,14.6736 C20.5058333,14.5539 20.614,14.4693 20.7405,14.4603 L21.2529167,14.4243 C21.41425,14.4126 21.5389167,14.2812 21.5389167,14.1219 L21.54075,13.5999 L21.54075,13.5999 Z M17.8429167,15.381 C16.9913333,15.381 16.3010833,14.7033 16.3010833,13.8681 C16.3010833,13.0329 16.9913333,12.3543 17.8429167,12.3543 C18.6945,12.3543 19.3838333,13.032 19.3838333,13.8681 C19.3838333,14.7042 18.6935833,15.381 17.8429167,15.381 L17.8429167,15.381 L17.8429167,15.381 Z" id="Shape"></path>
                    <path d="M7.36908333,5.4594 C7.03083333,5.3685 6.6715,5.3199 6.29841667,5.3199 C4.33675,5.3199 2.74725,6.6762 2.74725,8.3484 C2.74725,10.0206 4.33766667,11.3769 6.29841667,11.3769" id="Shape"></path>
                    <path d="M0.458333333,16.3413 C0.458333333,16.0992 0.4785,15.8598 0.517916667,15.6267 C0.869916667,13.536 2.74541667,11.8638 5.15441667,11.4561 C5.52383333,11.3931 5.90608333,11.3607 6.2975,11.3607" id="Shape"></path>
                </g>
            </g>
        </g>
    </g>
</svg>