<?xml version="1.0" encoding="utf-8"?>
<!-- Generator: Adobe Illustrator 17.0.0, SVG Export Plug-In . SVG Version: 6.00 Build 0)  -->
<!DOCTYPE svg PUBLIC "-//W3C//DTD SVG 1.1//EN" "http://www.w3.org/Graphics/SVG/1.1/DTD/svg11.dtd">
<svg version="1.1" id="Layer_1" xmlns="http://www.w3.org/2000/svg" xmlns:xlink="http://www.w3.org/1999/xlink" x="0px" y="0px"
	 width="24px" height="24px" viewBox="0 0 24 24" enable-background="new 0 0 24 24" xml:space="preserve">
<circle fill="none" stroke="#333333" stroke-width="1.0781" stroke-miterlimit="10" cx="12.478" cy="7.671" r="4.73"/>
<path fill="none" stroke="#333333" stroke-width="1.0781" stroke-miterlimit="10" d="M18.074,14.754
	c-1.415-1.465-3.399-2.376-5.596-2.376"/>
<path fill="none" stroke="#333333" stroke-width="1.0781" stroke-miterlimit="10" d="M12.478,12.378
	c-4.296,0-7.779,3.483-7.779,7.779"/>
<path fill="none" stroke="#333333" stroke-width="1.0781" stroke-miterlimit="10" d="M23.499,17.111
	c0-0.177-0.137-0.323-0.313-0.335l-0.564-0.039c-0.11-0.09-0.19-0.155-0.3-0.244c-0.052-0.159-0.116-0.314-0.193-0.463
	c0.014-0.142,0.024-0.244,0.038-0.386l0.371-0.429c0.116-0.133,0.108-0.334-0.017-0.458l-0.413-0.412
	c-0.125-0.125-0.325-0.131-0.458-0.015l-0.428,0.372c-0.108,0.094-0.261,0.105-0.388,0.038c-0.073-0.038-0.147-0.074-0.225-0.106
	c-0.077-0.032-0.155-0.059-0.233-0.083c-0.137-0.042-0.238-0.158-0.248-0.301l-0.041-0.566c-0.013-0.176-0.159-0.312-0.336-0.312
	l-0.584,0.001c-0.177,0-0.323,0.137-0.335,0.313l-0.056,0.801c-0.001,0-0.001,0.001-0.001,0.001
	c-0.24,0.057-0.472,0.143-0.691,0.256c-0.142-0.014-0.244-0.024-0.386-0.039l-0.427-0.37c-0.133-0.116-0.334-0.108-0.458,0.017
	l-0.412,0.413c-0.125,0.125-0.131,0.325-0.016,0.458l0.367,0.422c0.091,0.105,0.109,0.254,0.043,0.377
	c-0.042,0.079-0.082,0.161-0.117,0.246c-0.032,0.076-0.059,0.153-0.083,0.231c-0.042,0.137-0.158,0.238-0.301,0.248l-0.554,0.039
	c-0.176,0.013-0.313,0.159-0.312,0.336l0.001,0.583c0,0.176,0.137,0.323,0.313,0.335l0.788,0.054c0,0,0.001,0.001,0.002,0.001
	c0.057,0.244,0.144,0.48,0.259,0.702c-0.014,0.142-0.024,0.244-0.038,0.386l-0.361,0.416c-0.116,0.133-0.109,0.334,0.017,0.458
	l0.413,0.412c0.125,0.125,0.325,0.131,0.458,0.015l0.413-0.36c0.108-0.094,0.262-0.105,0.388-0.038
	c0.075,0.039,0.152,0.076,0.231,0.109c0.08,0.033,0.161,0.061,0.242,0.086c0.137,0.042,0.238,0.158,0.249,0.301l0.039,0.547
	c0.013,0.176,0.159,0.313,0.336,0.312l0.583-0.001c0.177,0,0.323-0.137,0.335-0.314l0.054-0.786c0.001,0,0.001-0.001,0.001-0.001
	c0.321-0.077,0.627-0.205,0.906-0.379c0.001,0,0.001,0,0.001,0l0.598,0.518c0.134,0.116,0.334,0.108,0.458-0.017l0.412-0.413
	c0.125-0.125,0.131-0.326,0.015-0.459l-0.366-0.42c-0.094-0.108-0.105-0.261-0.039-0.388c0.037-0.072,0.072-0.145,0.104-0.221
	c0.035-0.085,0.065-0.17,0.09-0.256c0.04-0.133,0.158-0.227,0.296-0.237l0.559-0.04c0.176-0.013,0.312-0.159,0.312-0.336
	L23.499,17.111z M19.465,19.09c-0.929,0-1.682-0.753-1.682-1.681s0.753-1.682,1.682-1.682c0.929,0,1.681,0.753,1.681,1.682
	S20.393,19.09,19.465,19.09z"/>
<path fill="none" stroke="#333333" stroke-width="1.0781" stroke-miterlimit="10" d="M8.039,8.066
	C7.67,7.965,7.278,7.911,6.871,7.911c-2.14,0-3.874,1.507-3.874,3.365s1.735,3.365,3.874,3.365"/>
<path fill="none" stroke="#333333" stroke-width="1.0781" stroke-miterlimit="10" d="M0.5,20.157c0-0.269,0.022-0.535,0.065-0.794
	c0.384-2.323,2.43-4.181,5.058-4.634c0.403-0.07,0.82-0.106,1.247-0.106"/>
</svg>
