<?xml version="1.0" encoding="utf-8"?>
<!-- Generator: Adobe Illustrator 17.0.0, SVG Export Plug-In . SVG Version: 6.00 Build 0)  -->
<!DOCTYPE svg PUBLIC "-//W3C//DTD SVG 1.1//EN" "http://www.w3.org/Graphics/SVG/1.1/DTD/svg11.dtd">
<svg version="1.1" id="Layer_1" xmlns="http://www.w3.org/2000/svg" xmlns:xlink="http://www.w3.org/1999/xlink" x="0px" y="0px"
	 width="46px" height="46px" viewBox="0 0 46 46" enable-background="new 0 0 46 46" xml:space="preserve">
<circle opacity="0.3" fill="#FD9805" cx="23" cy="23" r="23"/>
<circle fill="#FFFFFF" cx="23" cy="23" r="19"/>
<g>
	<path fill="#FD9805" d="M23,6c9.374,0,17,7.626,17,17s-7.626,17-17,17S6,32.374,6,23S13.626,6,23,6 M23,4C12.507,4,4,12.507,4,23
		s8.507,19,19,19s19-8.507,19-19S33.493,4,23,4L23,4z"/>
	<g transform="translate(-448.000000, -188.000000)">
		<g transform="translate(400.000000, 145.000000)">
			<g transform="translate(48.000000, 43.000000)">
				<path id="Fill-38_3_" fill="#FD9805" d="M29.364,13v1.636H14.636v14.727H13V13H29.364z M31.182,18.455H18.455v12.727h12.727
					V18.455z M33,33H16.636V16.636H33V33z"/>
			</g>
		</g>
	</g>
</g>
</svg>
