<?xml version="1.0" encoding="utf-8"?>
<!-- Generator: Adobe Illustrator 17.0.0, SVG Export Plug-In . SVG Version: 6.00 Build 0)  -->
<!DOCTYPE svg PUBLIC "-//W3C//DTD SVG 1.1//EN" "http://www.w3.org/Graphics/SVG/1.1/DTD/svg11.dtd">
<svg version="1.1" id="Layer_1" xmlns="http://www.w3.org/2000/svg" xmlns:xlink="http://www.w3.org/1999/xlink" x="0px" y="0px"
	 width="24px" height="24px" viewBox="0 0 24 24" enable-background="new 0 0 24 24" xml:space="preserve">
<path fill="#333333" d="M6.395,6.162C6.395,2.759,9.154,0,12.557,0c3.404,0,6.162,2.759,6.162,6.162c0,3.071-2.249,5.61-5.189,6.078
	v11.111c0,0.359-0.29,0.649-0.649,0.649c-0.359,0-0.648-0.291-0.648-0.649v-1.297H8.989c-0.359,0-0.648-0.29-0.648-0.648
	c0-0.359,0.289-0.649,0.648-0.649h3.244v-1.946H8.989c-0.359,0-0.648-0.291-0.648-0.649c0-0.359,0.289-0.648,0.648-0.648h3.244
	v-5.206C8.981,12.138,6.395,9.455,6.395,6.162z M17.422,6.162c0-2.687-2.177-4.865-4.865-4.865c-2.687,0-4.866,2.177-4.866,4.865
	c0,2.685,2.178,4.865,4.866,4.865C15.245,11.026,17.422,8.848,17.422,6.162z"/>
</svg>
