<?xml version="1.0" encoding="UTF-8" standalone="no"?>
<svg width="38px" height="42px" viewBox="0 0 38 42" version="1.1" xmlns="http://www.w3.org/2000/svg" xmlns:xlink="http://www.w3.org/1999/xlink" xmlns:sketch="http://www.bohemiancoding.com/sketch/ns">
    <!-- Generator: Sketch 3.2.2 (9983) - http://www.bohemiancoding.com/sketch -->
    <title>Slice 1</title>
    <desc>Created with Sketch.</desc>
    <defs></defs>
    <g id="Page-1" stroke="none" stroke-width="1" fill="none" fill-rule="evenodd" sketch:type="MSPage">
        <path d="M19,0 L38,10.5 L38,31.5 L19,42 L0,31.5 L0,10.5 L19,0 Z" id="Internet-Gateway-2" fill="#CEAE71" fill-opacity="0.3"></path>
        <path d="M19,3 L34.5884573,12 L34.5884573,30 L19,39 L3.41154273,30 L3.41154273,12 L19,3 Z" id="Internet-Gateway" fill="#CEAE71"></path>
        <path d="M18,17 L18,20.898 C16.044,20.5 14.5,18.956 14.102,17 L18,17 L18,17 Z M18,11.102 L18,14 L20,14 L20,11.102 C21.956,11.5 23.5,13.044 23.898,15 L14.102,15 C14.5,13.044 16.044,11.5 18,11.102 L18,11.102 L18,11.102 Z M20,20.898 L20,17 L23.898,17 C23.5,18.956 21.956,20.5 20,20.898 L20,20.898 L20,20.898 Z M19,23 C22.859,23 26,19.859 26,16 C26,12.141 22.859,9 19,9 C15.141,9 12,12.141 12,16 C12,19.859 15.141,23 19,23 L19,23 L19,23 Z M19,30 C17.897,30 17,29.104 17,28 C17,26.896 17.897,26 19,26 C20.102,26 21,26.896 21,28 C21,29.104 20.102,30 19,30 L19,30 L19,30 Z M30,27 L22.857,27 C22.41,25.279 20.859,24 19,24 C17.141,24 15.59,25.279 15.143,27 L8,27 C7.447,27 7,27.447 7,28 C7,28.553 7.447,29 8,29 L15.143,29 C15.59,30.721 17.141,32 19,32 C20.859,32 22.41,30.721 22.857,29 L30,29 C30.553,29 31,28.553 31,28 C31,27.447 30.553,27 30,27 L30,27 L30,27 Z" id="Internet-Gateway" fill="#FFFFFF"></path>
    </g>
</svg>