<?xml version="1.0" encoding="UTF-8" standalone="no"?>
<svg width="19px" height="17px" viewBox="0 0 17 15" version="1.1" xmlns="http://www.w3.org/2000/svg" xmlns:xlink="http://www.w3.org/1999/xlink" xmlns:sketch="http://www.bohemiancoding.com/sketch/ns">
    <!-- Generator: Sketch 3.2.2 (9983) - http://www.bohemiancoding.com/sketch -->
    <title>Slice 1</title>
    <desc>Created with Sketch.</desc>
    <defs></defs>
    <g id="Page-1" stroke="none" stroke-width="1" fill="none" fill-rule="evenodd" sketch:type="MSPage">
        <g id="layers" sketch:type="MSLayerGroup" fill="#999999">
            <path d="M1.317,6.01399876 L7.641,10.4826456 C8.106,10.81102 8.863,10.81102 9.328,10.4826456 L15.652,6.01399876 C16.117,5.6856244 16.117,5.15058086 15.652,4.8222065 L9.328,1.02753077 C8.863,0.69915641 8.106,0.69915641 7.641,1.02753077 L1.317,4.8222065 C0.853,5.15058086 0.853,5.6856244 1.317,6.01399876 L1.317,6.01399876 Z M8.481,2.04709871 L14.352,5.41695447 C14.361,5.38480593 14.4,5.43647322 14.352,5.41695447 L9.065,9.24377874 C8.743,9.4630777 8.219,9.4630777 7.898,9.24377874 L2.61,5.41810263 L8.481,2.04709871 L8.481,2.04709871 Z M15.651,8.19206226 L15.53,8.11972805 L9.324,12.5034109 C8.859,12.8317853 8.102,12.8317853 7.637,12.5034109 L1.436,8.12202437 L1.317,8.19206226 C0.852,8.52043662 0.852,9.05548016 1.317,9.38385452 L7.641,13.8525014 C8.106,14.1808758 8.863,14.1808758 9.328,13.8525014 L15.652,9.38385452 C16.116,9.05548016 16.116,8.52043662 15.651,8.19206226 L15.651,8.19206226 Z" id="Shape" sketch:type="MSShapeGroup"></path>
            <path d="M3.19,14.0982996 L0,14.0982996 L0,11.0197151 L3.19,14.0982996 L3.19,14.0982996 Z" id="Shape" sketch:type="MSShapeGroup"></path>
        </g>
    </g>
</svg>