<?xml version="1.0" encoding="UTF-8" standalone="no"?>
<svg width="130px" height="70px" viewBox="0 0 110 76" version="1.1" xmlns="http://www.w3.org/2000/svg" xmlns:xlink="http://www.w3.org/1999/xlink">
    <!-- Generator: Sketch 3.6.1 (26313) - http://www.bohemiancoding.com/sketch -->
    <title>network-legend</title>
    <desc>Created with Sketch.</desc>
    <defs>
        <path id="path-1" d="M61.9918349,57.1392405 C61.9972713,56.8276143 62,56.5153715 62,56.2025316 C62,25.1627305 35.137085,0 2,0 C1.33071381,0 0.663987089,0.0102648569 -1.05117697e-05,0.0306356693 L1.15446423e-13,57.1392405 L61.9918349,57.1392405 L61.9918349,57.1392405 Z"></path>
    </defs>
    <g id="Page-1" stroke="none" stroke-width="1" fill="none" fill-rule="evenodd">
        <g id="network-legend" transform="translate(0.000000, 1.000000)">
            <g id="Page-1">
                <g id="06">
                    <g id="legend">
                        <g id="Group">
                            <g id="Oval-38" transform="translate(17.000000, 0.000000)">
                                <g id="mask-2" fill="#FFFFFF">
                                    <path d="M61.9918349,57.1392405 C61.9972713,56.8276143 62,56.5153715 62,56.2025316 C62,25.1627305 35.137085,0 2,0 C1.33071381,0 0.663987089,0.0102648569 -1.05117697e-05,0.0306356693 L1.15446423e-13,57.1392405 L61.9918349,57.1392405 L61.9918349,57.1392405 Z" id="path-1"></path>
                                </g>
                                <g id="Mask" stroke="#979797" fill="#D8D8D8">
                                    <path d="M61.9918349,57.1392405 C61.9972713,56.8276143 62,56.5153715 62,56.2025316 C62,25.1627305 35.137085,0 2,0 C1.33071381,0 0.663987089,0.0102648569 -1.05117697e-05,0.0306356693 L1.15446423e-13,57.1392405 L61.9918349,57.1392405 L61.9918349,57.1392405 Z" id="path-1"></path>
                                </g>
                                <g id="Clipped">
                                    <mask id="mask-2" fill="white">
                                        <use xlink:href="#path-1"></use>
                                    </mask>
                                    <g id="path-1"></g>
                                    <ellipse id="Oval" stroke="#979797" fill="#D8D8D8" mask="url(#mask-2)" cx="0" cy="59.0126582" rx="20" ry="18.7341772"></ellipse>
                                </g>
                            </g>
                            <g id="Smallest" transform="translate(0.000000, 62.759494)" font-size="9.36708861" font-family="Helvetica" fill="#4A4A4A" font-weight="normal">
                                <text>
                                    <tspan x="0.327636719" y="9" fill="#000000">Smallest</tspan>
                                </text>
                            </g>
                            <path d="M37,62.7594937 L37,58.0759494" id="Line" stroke="#979797"></path>
                            <path d="M79,62.7594937 L79,58.0759494" id="Line-Copy-2" stroke="#979797"></path>
                            <g id="Biggest" transform="translate(78.000000, 62.759494)" font-size="9.36708861" font-family="Helvetica" fill="#4A4A4A" font-weight="normal">
                                <text>
                                    <tspan x="0.3227539" y="9" fill="#000000">Biggest</tspan>
                                </text>
                            </g>
                        </g>
                    </g>
                </g>
            </g>
        </g>
    </g>
</svg>