<?xml version="1.0" encoding="UTF-8" standalone="no"?>
<svg width="21px" height="15px" viewBox="0 0 21 15" version="1.1" xmlns="http://www.w3.org/2000/svg" xmlns:xlink="http://www.w3.org/1999/xlink">
    <!-- Generator: Sketch 3.7 (28169) - http://www.bohemiancoding.com/sketch -->
    <title>overview</title>
    <desc>Created with Sketch.</desc>
    <defs></defs>
    <g id="Symbols" stroke="none" stroke-width="1" fill="none" fill-rule="evenodd">
        <g id="Group" transform="translate(-300.000000, -102.000000)" stroke="#979797">
            <g id="overview" transform="translate(301.000000, 103.000000)">
                <g id="eye">
                    <g id="Group">
                        <path d="M18.3526042,5.95347222 C18.2755208,5.84305556 16.4435764,3.22777778 13.9144097,1.43958333 C12.6032986,0.511111111 10.9498264,-1.77635684e-15 9.25885417,-1.77635684e-15 C7.56927083,-1.77635684e-15 5.91510417,0.511111111 4.60121528,1.43958333 C2.07274306,3.22777778 0.2421875,5.84305556 0.165104167,5.95347222 C-0.0550347222,6.27083333 -0.0550347222,6.69236111 0.165104167,7.00972222 C0.2421875,7.12013889 2.07274306,9.73541667 4.60121528,11.5236111 C5.91510417,12.4513889 7.56857639,12.9625 9.25885417,12.9625 C10.9498264,12.9625 12.6032986,12.4513889 13.9144097,11.5229167 C16.4428819,9.73472222 18.2755208,7.11944444 18.3526042,7.00902778 C18.5741319,6.69236111 18.5741319,6.27013889 18.3526042,5.95347222 L18.3526042,5.95347222 Z M9.25885417,9.97230903 C7.32968313,9.97230903 5.76779514,8.40668088 5.76779514,6.48125 C5.76779514,4.55207896 7.32968313,2.99019097 9.25885417,2.99019097 C11.183537,2.99019097 12.7499132,4.55207896 12.7499132,6.48125 C12.7499132,8.40593285 11.1842851,9.97230903 9.25885417,9.97230903 L9.25885417,9.97230903 Z M11.1109375,6.48125 C11.1109375,7.50138889 10.2796875,8.33333333 9.25885417,8.33333333 C8.2359375,8.33333333 7.40677083,7.50208333 7.40677083,6.48125 C7.40677083,5.45833333 8.23524306,4.62916667 9.25885417,4.62916667 C10.2789931,4.62916667 11.1109375,5.45763889 11.1109375,6.48125 L11.1109375,6.48125 Z" id="Shape"></path>
                    </g>
                </g>
            </g>
        </g>
    </g>
</svg>