<?xml version="1.0" encoding="UTF-8" standalone="no"?>
<svg width="40px" height="40px" viewBox="0 0 40 40" version="1.1" xmlns="http://www.w3.org/2000/svg" xmlns:xlink="http://www.w3.org/1999/xlink">
    <!-- Generator: Sketch 3.6.1 (26313) - http://www.bohemiancoding.com/sketch -->
    <title>expand</title>
    <desc>Created with Sketch.</desc>
    <defs></defs>
    <g id="Page-1" stroke="none" stroke-width="1" fill="none" fill-rule="evenodd">
        <g id="material" transform="translate(-37.000000, -114.000000)">
            <g id="expand" transform="translate(37.000000, 114.000000)">
                <circle id="Oval-6" fill="#9B9B9B" cx="20" cy="20" r="20"></circle>
                <path d="M16.2498047,28.5072654 C16.2498047,29.1984938 15.6904472,29.7572263 14.9998438,29.7572263 L11.2499609,29.7572263 C10.5593575,29.7572263 10,29.1984938 10,28.5072654 L10,24.7573826 C10,24.0667792 10.5587325,23.5074216 11.2499609,23.5074216 L12.8549108,25.1123715 L16.9672823,21 L18.7566014,22.7899441 L14.6442299,26.9035655 L16.2491797,28.5066404 L16.2498047,28.5072654 Z M28.5072654,16.2491797 L26.9023156,14.6448548 L22.7899441,18.7566014 L21,16.9672823 L25.1123715,12.8549108 L23.5080466,11.2499609 C23.5080466,10.5593575 24.0674041,10 24.7580076,10 L28.5078904,10 C29.1978688,10 29.7578513,10.5593575 29.7578513,11.2499609 L29.7578513,14.9998438 C29.7578513,15.6904472 29.1978688,16.2498047 28.5078904,16.2498047 L28.5072654,16.2491797 Z M23.5067967,28.5072654 C23.5067967,29.1984938 24.0661542,29.7572263 24.7567576,29.7572263 L28.5066404,29.7572263 C29.1972438,29.7572263 29.7566014,29.1984938 29.7566014,28.5072654 L29.7566014,24.7573826 C29.7566014,24.0667792 29.1978688,23.5074216 28.5066404,23.5074216 L26.9016906,25.1123715 L22.7893191,21 L21,22.7899441 L25.1123715,26.9035655 L23.5074216,28.5066404 L23.5067967,28.5072654 Z M11.2505859,16.2491797 L12.8555358,14.6448548 L16.9679073,18.7566014 L18.7578513,16.9672823 L14.6454798,12.8549108 L16.2498047,11.2499609 C16.2498047,10.5593575 15.6904472,10 14.9998438,10 L11.2499609,10 C10.5599825,10 10,10.5593575 10,11.2499609 L10,14.9998438 C10,15.6904472 10.5599825,16.2498047 11.2499609,16.2498047 L11.2505859,16.2491797 Z" id="Page-1" fill="#FFFFFF"></path>
            </g>
        </g>
    </g>
</svg>