<?xml version="1.0" encoding="UTF-8" standalone="no"?>
<svg width="34px" height="34px" viewBox="0 0 34 34" version="1.1" xmlns="http://www.w3.org/2000/svg" xmlns:xlink="http://www.w3.org/1999/xlink" xmlns:sketch="http://www.bohemiancoding.com/sketch/ns">
    <!-- Generator: Sketch 3.2.2 (9983) - http://www.bohemiancoding.com/sketch -->
    <title>Slice 1</title>
    <desc>Created with Sketch.</desc>
    <defs></defs>
    <g id="Page-1" stroke="none" stroke-width="1" fill="none" fill-rule="evenodd" sketch:type="MSPage">
        <circle id="Oval-2" fill="#8B572A" fill-opacity="0.3" sketch:type="MSShapeGroup" cx="17" cy="17" r="17"></circle>
        <circle id="Oval-1" fill="#8B572A" sketch:type="MSShapeGroup" cx="17" cy="16.5" r="13.5"></circle>
        <g id="policy-icon" sketch:type="MSLayerGroup" transform="translate(8.500000, 5.000000)">
            <g id="Group" sketch:type="MSShapeGroup">
                <path d="M8.5,1.28604 C10.4533,1.28604 12.0428,2.85684 12.0428,4.78716 L12.0428,8.0346 L4.9572,8.0346 L4.9572,4.788 C4.9572,2.85684 6.5467,1.28604 8.5,1.28604 L8.5,1.28604 Z M8.5,0.2562 C5.96785,0.2562 3.91425,2.2848 3.91425,4.788 L3.91425,9.06528 L13.0849,9.06528 L13.0849,4.788 C13.08575,2.2848 11.03215,0.2562 8.5,0.2562 L8.5,0.2562 L8.5,0.2562 Z" id="Shape" fill="#FFFFFF"></path>
                <path d="M14.11255,9.06528 C14.77385,9.06528 15.3153,9.60036 15.3153,10.25388 L15.3153,17.9676 C15.3153,18.62112 14.77385,19.1562 14.11255,19.1562 L2.88745,19.1562 C2.22615,19.1562 1.6847,18.62112 1.6847,17.9676 L1.6847,10.25388 C1.6847,9.60036 2.22615,9.06528 2.88745,9.06528 L14.11255,9.06528 L14.11255,9.06528 Z M14.11255,8.0346 L2.88745,8.0346 C1.64985,8.0346 0.6426,9.03 0.6426,10.25304 L0.6426,17.96676 C0.6426,19.1898 1.64985,20.1852 2.88745,20.1852 L14.1134,20.1852 C15.351,20.1852 16.35825,19.1898 16.35825,17.96676 L16.35825,10.25304 C16.35825,9.03 15.351,8.0346 14.11255,8.0346 L14.11255,8.0346 L14.11255,8.0346 Z" id="Shape" fill="#FFFFFF"></path>
                <path d="M10.25865,11.97336 C10.25865,11.01324 9.47155,10.2354 8.5,10.2354 C7.52845,10.2354 6.74135,11.01408 6.74135,11.97336 C6.74135,12.6168 7.0958,13.17624 7.6211,13.47696 L7.6211,16.89828 C7.6211,17.37792 8.01465,17.76768 8.50085,17.76768 C8.9862,17.76768 9.3806,17.37876 9.3806,16.89828 L9.3806,13.47696 C9.90505,13.17624 10.25865,12.61596 10.25865,11.97336 L10.25865,11.97336 Z" id="Shape" stroke="#FFFFFF" stroke-width="1.2263"></path>
            </g>
        </g>
    </g>
</svg>