<?xml version="1.0" encoding="utf-8"?>
<!-- Generator: Adobe Illustrator 17.0.0, SVG Export Plug-In . SVG Version: 6.00 Build 0)  -->
<!DOCTYPE svg PUBLIC "-//W3C//DTD SVG 1.1//EN" "http://www.w3.org/Graphics/SVG/1.1/DTD/svg11.dtd">
<svg version="1.1" id="Layer_1" xmlns="http://www.w3.org/2000/svg" xmlns:xlink="http://www.w3.org/1999/xlink" x="0px" y="0px"
	 width="24px" height="24px" viewBox="0 0 24 24" enable-background="new 0 0 24 24" xml:space="preserve">
<g>
	<g>
		<path d="M12,1.531c2.298,0,4.168,1.87,4.168,4.168v3.866H7.832V5.7C7.832,3.401,9.702,1.531,12,1.531 M12,0.305
			c-2.979,0-5.395,2.415-5.395,5.395v5.092h10.789V5.7C17.395,2.72,14.979,0.305,12,0.305L12,0.305z"/>
	</g>
	<g>
		<path d="M18.603,10.792c0.778,0,1.415,0.637,1.415,1.415v9.183c0,0.778-0.637,1.415-1.415,1.415H5.397
			c-0.778,0-1.415-0.637-1.415-1.415v-9.183c0-0.778,0.637-1.415,1.415-1.415H18.603 M18.603,9.565H5.397
			c-1.456,0-2.641,1.185-2.641,2.641v9.183c0,1.456,1.185,2.641,2.641,2.641h13.207c1.456,0,2.641-1.185,2.641-2.641v-9.183
			C21.245,10.75,20.06,9.565,18.603,9.565L18.603,9.565z"/>
	</g>
	<path fill="none" stroke="#000000" stroke-width="1.2263" stroke-miterlimit="10" d="M14.069,14.254
		c0-1.143-0.926-2.069-2.069-2.069s-2.069,0.927-2.069,2.069c0,0.766,0.417,1.432,1.035,1.79v4.073c0,0.571,0.463,1.035,1.035,1.035
		c0.571,0,1.035-0.463,1.035-1.035v-4.073C13.653,15.686,14.069,15.019,14.069,14.254z"/>
</g>
</svg>
