<?xml version="1.0" encoding="utf-8"?>
<!-- Generator: Adobe Illustrator 17.0.0, SVG Export Plug-In . SVG Version: 6.00 Build 0)  -->
<!DOCTYPE svg PUBLIC "-//W3C//DTD SVG 1.1//EN" "http://www.w3.org/Graphics/SVG/1.1/DTD/svg11.dtd">
<svg version="1.1" id="Layer_1" xmlns="http://www.w3.org/2000/svg" xmlns:xlink="http://www.w3.org/1999/xlink" x="0px" y="0px"
	 width="20px" height="20px" viewBox="0 0 40 40" enable-background="new 0 0 40 40" xml:space="preserve">
<path fill="#FFF" d="M22.857,22.857h-5.714v-5.714h5.714V22.857z M31.429,25.714h-5.714v5.714h5.714V25.714z M31.429,17.143h-5.714v5.714h5.714
	V17.143z M40,2.857V40H0V2.857h8.571V0h2.857v2.857h17.143V0h2.857v2.857H40z M37.143,11.429H2.857v25.714h34.286V11.429z
	 M14.286,25.714H8.571v5.714h5.714V25.714z M14.286,17.143H8.571v5.714h5.714V17.143z M22.857,25.714h-5.714v5.714h5.714V25.714z"/>
</svg>
