<?xml version="1.0" encoding="UTF-8" standalone="no"?>
<svg width="25px" height="13px" viewBox="0 0 25 13" version="1.1" xmlns="http://www.w3.org/2000/svg" xmlns:xlink="http://www.w3.org/1999/xlink" xmlns:sketch="http://www.bohemiancoding.com/sketch/ns">
    <!-- Generator: Sketch 3.3.2 (12043) - http://www.bohemiancoding.com/sketch -->
    <title>Icon/RouteTable</title>
    <desc>Created with Sketch.</desc>
    <defs></defs>
    <g id="Visual-Designs" stroke="none" stroke-width="1" fill="none" fill-rule="evenodd" sketch:type="MSPage">
        <g id="4.0-Icons" sketch:type="MSArtboardGroup" transform="translate(-443.000000, -493.000000)" fill="#333333">
            <g id="Icons" sketch:type="MSLayerGroup" transform="translate(400.000000, 145.000000)">
                <g id="Icon/RouteTable" transform="translate(46.000000, 348.000000)" sketch:type="MSShapeGroup">
                    <path d="M17.1,12.6 L0.9,12.6 C0.4023,12.6 0,12.1959 0,11.7 C0,11.2041 0.4023,10.8 0.9,10.8 L17.1,10.8 C17.5968,10.8 18,11.2041 18,11.7 C18,12.1959 17.5968,12.6 17.1,12.6 M17.1,7.2 L0.9,7.2 C0.4023,7.2 0,6.7959 0,6.3 C0,5.8041 0.4023,5.4 0.9,5.4 L17.1,5.4 C17.5968,5.4 18,5.8041 18,6.3 C18,6.7959 17.5968,7.2 17.1,7.2 M0.9,0 L17.1,0 C17.5968,0 18,0.4041 18,0.9 C18,1.3959 17.5968,1.8 17.1,1.8 L0.9,1.8 C0.4023,1.8 0,1.3959 0,0.9 C0,0.4041 0.4023,0 0.9,0" id="Route-Table"></path>
                </g>
            </g>
        </g>
    </g>
</svg>