<?xml version="1.0" encoding="UTF-8" standalone="no"?>
<svg width="52px" height="52px" viewBox="0 0 52 52" version="1.1" xmlns="http://www.w3.org/2000/svg" xmlns:xlink="http://www.w3.org/1999/xlink" xmlns:sketch="http://www.bohemiancoding.com/sketch/ns">
    <!-- Generator: Sketch 3.2.2 (9983) - http://www.bohemiancoding.com/sketch -->
    <title>Slice 1</title>
    <desc>Created with Sketch.</desc>
    <defs></defs>
    <g id="Page-1" stroke="none" stroke-width="1" fill="none" fill-rule="evenodd" sketch:type="MSPage">
        <rect id="Route-Table-2" fill="#CEAE71" fill-opacity="0.3" transform="translate(25.955844, 25.955844) rotate(-45.000000) translate(-25.955844, -25.955844) " x="7.95584412" y="7.95584412" width="36" height="36" rx="4"></rect>
        <rect id="Route-Table" fill="#CEAE71" transform="translate(26.013203, 26.013203) rotate(-45.000000) translate(-26.013203, -26.013203) " x="11.0132034" y="11.0132034" width="30" height="30" rx="4"></rect>
        <path d="M35,33 L17,33 C16.447,33 16,32.551 16,32 C16,31.449 16.447,31 17,31 L35,31 C35.552,31 36,31.449 36,32 C36,32.551 35.552,33 35,33 M35,27 L17,27 C16.447,27 16,26.551 16,26 C16,25.449 16.447,25 17,25 L35,25 C35.552,25 36,25.449 36,26 C36,26.551 35.552,27 35,27 M17,19 L35,19 C35.552,19 36,19.449 36,20 C36,20.551 35.552,21 35,21 L17,21 C16.447,21 16,20.551 16,20 C16,19.449 16.447,19 17,19" id="Route-Table" fill="#FFFFFF"></path>
    </g>
</svg>