<?xml version="1.0" encoding="UTF-8" standalone="no"?>
<svg width="18px" height="18px" viewBox="0 0 18 18" version="1.1" xmlns="http://www.w3.org/2000/svg" xmlns:xlink="http://www.w3.org/1999/xlink">
    <!-- Generator: Sketch 3.6.1 (26313) - http://www.bohemiancoding.com/sketch -->
    <title>setting</title>
    <desc>Created with Sketch.</desc>
    <defs></defs>
    <g id="Page-1" stroke="none" stroke-width="1" fill="none" fill-rule="evenodd">
        <g id="material" transform="translate(-112.000000, -183.000000)" fill="#FFFFFF">
            <g id="setting" transform="translate(112.000000, 183.000000)">
                <path d="M5.80892218,6.8853252 C5.85581194,6.81472391 5.90497849,6.74578407 5.95633981,6.67856722 C5.95925246,6.67475204 5.96216514,6.67093686 5.96507779,6.66712169 C6.01695188,6.59974073 6.07100023,6.53416481 6.12714077,6.47043494 C6.12968422,6.4675428 6.13224818,6.46469166 6.13479163,6.46182002 C6.19191673,6.39739275 6.25113403,6.33487308 6.31242301,6.27444559 C6.31381781,6.2730713 6.31523311,6.27171753 6.31662791,6.27032273 C6.41067408,6.17787647 6.50943794,6.09027098 6.61259131,6.00785495 C6.61302204,6.00750625 6.6134528,6.00713703 6.61390406,6.00678834 C6.68298748,5.95165288 6.75404004,5.89887625 6.82689762,5.84854054 C6.82757451,5.84806877 6.82825139,5.847597 6.82892828,5.84712523 C6.9018474,5.79681002 6.97659204,5.74897672 7.05305969,5.70372789 C7.05355196,5.70342021 7.05406476,5.70313305 7.05459806,5.70282539 C7.13135287,5.65743297 7.20978963,5.61464557 7.28988783,5.57460671 C7.28990834,5.57460671 7.28994937,5.57456568 7.2900109,5.57454518 L7.34522841,4.60333644 L3.82896826,1.46545573 L1.66153737,3.63284559 L4.72098131,7.06121308 L5.73331602,7.00363674 C5.75522252,6.96786432 5.77780591,6.93258418 5.80084056,6.89761173 C5.80352761,6.8935299 5.80621464,6.88940703 5.80892218,6.8853252 L5.80892218,6.8853252 Z" id="Shape"></path>
                <path d="M7.1432953,5.84856104 C6.96220221,6.01695719 6.7855957,6.19351929 6.61388354,6.37797281 C6.7855957,6.19351936 6.96220226,6.01688859 7.1432953,5.84856104 L7.1432953,5.84856104 Z" id="Shape"></path>
                <path d="M7.35831952,5.70374842 C7.17769837,5.87080349 7.00114707,6.04740036 6.82890775,6.23316018 C7.00114707,6.04747599 7.17769841,5.87080349 7.35831952,5.70374842 L7.35831952,5.70374842 Z" id="Shape"></path>
                <path d="M7.58398932,5.57462722 C7.40381119,5.74003134 7.22727902,5.91669957 7.05457756,6.10403899 C7.22723288,5.91669957 7.40381114,5.73994668 7.58398932,5.57462722 L7.58398932,5.57462722 Z" id="Shape"></path>
                <path d="M6.49448957,6.47045545 C6.31109506,6.64193871 6.13453512,6.8185013 5.96507781,6.99986721 C6.13453512,6.81855655 6.31102801,6.64188351 6.49448957,6.47045545 L6.49448957,6.47045545 Z" id="Shape"></path>
                <path d="M6.13477112,6.80385736 C6.30502653,6.62182315 6.48151749,6.44517871 6.66418289,6.27444559 C6.48151749,6.44517871 6.30502653,6.62182315 6.13477112,6.80385736 L6.13477112,6.80385736 Z" id="Shape"></path>
                <path d="M6.26272781,6.89761173 C6.08212954,7.07223873 5.90506931,7.24850447 5.73331604,7.42702349 L5.73331604,7.42702349 C5.90506931,7.24850447 6.08212954,7.07223873 6.26272781,6.89761173 L6.26272781,6.89761173 Z" id="Shape"></path>
                <path d="M6.84601917,6.00787547 C6.66150106,6.17411307 6.48483479,6.35081812 6.31660741,6.53728724 C6.48483479,6.35081812 6.66150106,6.17407171 6.84601917,6.00787547 L6.84601917,6.00787547 Z" id="Shape"></path>
                <path d="M6.33833394,6.67856722 C6.15395696,6.85067855 5.97731445,7.02720171 5.80892218,7.20797899 C5.97731445,7.02720166 6.15388325,6.85067855 6.33833394,6.67856722 L6.33833394,6.67856722 Z" id="Shape"></path>
                <path d="M5.44338307,7.58202581 C5.45614134,7.55004806 5.4693919,7.51831645 5.48297066,7.48676945 C5.4849603,7.48217482 5.48699095,7.47760071 5.48898059,7.4730061 C5.5008979,7.44568451 5.51308185,7.41852702 5.5256145,7.39153361 C5.52821949,7.38587237 5.53086549,7.38023165 5.53353202,7.37459094 C5.54602364,7.34798726 5.55880243,7.32154767 5.57190942,7.29529268 C5.57435031,7.29036988 5.5767707,7.28542656 5.57923209,7.28052426 C5.5939595,7.25129509 5.6090151,7.22225051 5.6244604,7.19345207 C5.62521933,7.19205727 5.62591674,7.19066247 5.62667566,7.18926769 C5.66051997,7.12631726 5.69608727,7.06443344 5.73329552,7.00365726 L4.7209608,7.06123361 L5.36841279,7.78675316 C5.36841279,7.78673265 5.36843329,7.78669162 5.36845382,7.78665059 C5.39150897,7.71758767 5.41649223,7.64940676 5.44332155,7.58214888 C5.44336256,7.58210785 5.44338307,7.58206682 5.44338307,7.58202581 L5.44338307,7.58202581 Z" id="Shape"></path>
                <path d="M6.10866438,7.19343154 C5.92787195,7.36853028 5.75164162,7.54500083 5.57925262,7.72284331 C5.75164139,7.5451255 5.92787195,7.36853016 6.10866438,7.19343154 L6.10866438,7.19343154 Z" id="Shape"></path>
                <path d="M6.01841286,7.39153359 C5.83729835,7.56693791 5.66122297,7.74340845 5.4890011,7.92094535 C5.66122297,7.74340845 5.83729835,7.56693791 6.01841286,7.39153359 L6.01841286,7.39153359 Z" id="Shape"></path>
                <path d="M6.15610793,7.00363672 L6.15610793,7.00363672 C5.97135367,7.17692853 5.79474729,7.35349662 5.62669617,7.53304848 C5.79474729,7.35349662 5.97135367,7.17698708 6.15610793,7.00363672 L6.15610793,7.00363672 Z" id="Shape"></path>
                <path d="M5.36847432,8.11154012 C5.5316491,7.93275081 5.70816807,7.75624482 5.89788609,7.58212835 C5.70816807,7.75624482 5.5315041,7.93275081 5.36847432,8.11154012 L5.36847432,8.11154012 Z" id="Shape"></path>
                <path d="M5.97279483,7.48676945 C5.79092955,7.66210005 5.61400166,7.83845667 5.44338307,8.01618121 C5.61400192,7.83845656 5.79120405,7.66209994 5.97279483,7.48676945 L5.97279483,7.48676945 Z" id="Shape"></path>
                <path d="M6.06296429,7.29527216 C5.88215495,7.47055593 5.70587322,7.64707219 5.53355252,7.82468392 C5.70587322,7.64707206 5.8824381,7.47069282 6.06296429,7.29527216 L6.06296429,7.29527216 Z" id="Shape"></path>
                <path d="M5.19777591,9.44387331 C5.19449404,9.41550563 5.19149933,9.38705588 5.18885333,9.35854461 C5.18790979,9.34855541 5.18704829,9.33854568 5.1861868,9.32855649 C5.18401257,9.30295788 5.18210497,9.27729774 5.18044352,9.25155555 C5.1797051,9.2402536 5.17892564,9.22897217 5.17828979,9.21764971 C5.17685398,9.19186649 5.17574634,9.16598073 5.17482331,9.14007444 C5.17443358,9.12953143 5.1739208,9.11904994 5.17361312,9.10850693 C5.17260804,9.07244735 5.1719927,9.03630572 5.1719927,9.00002053 C5.1719927,8.96982729 5.17242343,8.93975713 5.17314135,8.9097485 C5.17336697,8.90006697 5.17371569,8.89042648 5.17402335,8.88076545 C5.1746592,8.86023323 5.17539764,8.83974205 5.17636169,8.81927136 C5.17685396,8.80821555 5.1774283,8.79718025 5.17804364,8.78616547 C5.17911025,8.76653577 5.18038198,8.74698811 5.18175625,8.72744045 C5.18249467,8.71677437 5.18319206,8.70612879 5.18403305,8.69550372 C5.18592013,8.67156657 5.18807385,8.64771146 5.19041219,8.62391786 C5.19125318,8.6152209 5.19209415,8.60650342 5.19299667,8.59784749 C5.19562217,8.57276168 5.1984733,8.54777842 5.20157057,8.52283618 C5.20312945,8.51036506 5.20487294,8.49793496 5.2065344,8.48548435 C5.20870863,8.46921857 5.21096492,8.45295278 5.21334429,8.43676906 C5.21539547,8.42292365 5.21750816,8.4091398 5.21970292,8.39535593 C5.22206176,8.38060801 5.22450267,8.36590111 5.22702559,8.35123524 C5.22946648,8.33693859 5.23188688,8.32264192 5.23447134,8.30842731 C5.2370353,8.29435628 5.23980439,8.28034679 5.24253243,8.2663373 C5.24796803,8.23840036 5.25369081,8.21056596 5.25972125,8.18285466 C5.26218266,8.17149117 5.2645415,8.16010717 5.26712598,8.14878471 C5.27090013,8.13217023 5.27492043,8.11563779 5.27889971,8.09910535 C5.28148419,8.08835723 5.28406865,8.07758858 5.28675569,8.06688146 C5.2909811,8.05000033 5.29535008,8.03316023 5.29980114,8.01638164 C5.30240612,8.00653602 5.30507265,7.99671091 5.30775968,7.98690632 C5.31255943,7.96943035 5.31735915,7.95195437 5.32240505,7.93458096 C5.3244357,7.92758648 5.32656892,7.92065351 5.3286201,7.91365903 C5.3410502,7.87158952 5.35407512,7.82978667 5.36790001,7.78833251 C5.36808462,7.78781971 5.3682282,7.78730693 5.36839228,7.78677362 L4.7209403,7.06125408 L0.0157806682,7.32878828 L0.0157806682,10.3939345 L4.60332617,10.6548023 L5.27830487,9.89841269 C5.24415287,9.75643066 5.21785688,9.61135138 5.20003221,9.4636876 C5.19923225,9.45706233 5.19855537,9.45045756 5.19777591,9.44387331 L5.19777591,9.44387331 Z" id="Shape"></path>
                <path d="M5.79655825,8.09906436 C5.61762858,8.27546204 5.43685392,8.4516412 5.26714649,8.62847613 C5.43685392,8.4516412 5.61762858,8.27546204 5.79655825,8.09906436 L5.79655825,8.09906436 Z" id="Shape"></path>
                <path id="Shape" d="M5.18887383,9.35854461 C5.32087983,9.53556667 5.47028283,9.71195235 5.63401183,9.88795637 C5.46925983,9.7120797 5.32190383,9.53543944 5.18887383,9.35854461 L5.18887383,9.35854461 Z"></path>
                <path id="Shape" d="M5.18044352,9.25153505 C5.26435452,9.42852271 5.35849852,9.60494631 5.46696952,9.78094681 C5.35849952,9.60494631 5.26435452,9.42852271 5.18044352,9.25153505 L5.18044352,9.25153505 Z"></path>
                <path d="M5.81620848,8.01634065 C5.63557629,8.19223771 5.45827272,8.36878009 5.28679672,8.54575242 C5.45827272,8.36878009 5.63474331,8.19223771 5.81620848,8.01634065 L5.81620848,8.01634065 Z" id="Shape"></path>
                <path d="M5.77196472,8.18281365 C5.58622848,8.35867723 5.40933664,8.53506108 5.24255296,8.71222542 C5.40933664,8.53506108 5.58559691,8.35867723 5.77196472,8.18281365 L5.77196472,8.18281365 Z" id="Shape"></path>
                <path d="M5.85807287,7.78829151 C5.67174212,7.96340465 5.49619286,8.14007738 5.32866111,8.31770328 C5.49619286,8.13999067 5.67174212,7.96340456 5.85807287,7.78829151 L5.85807287,7.78829151 Z" id="Shape"></path>
                <path id="Shape" d="M5.29536378,8.69548322 C5.25340778,8.8719538 5.21861578,9.04842439 5.18177678,9.22489498 C5.21963878,9.04842439 5.25443178,8.87161389 5.29536378,8.69548322 L5.29536378,8.69548322 Z"></path>
                <path d="M5.20005271,9.46366711 C5.3206132,9.64349324 5.49847122,9.820172 5.72946448,9.99307888 L5.72946448,9.99307888 C5.49833239,9.820172 5.32102942,9.64346827 5.20005271,9.46366711 L5.20005271,9.46366711 Z" id="Shape"></path>
                <path d="M5.83721246,7.93453997 C5.65481041,8.1105264 5.48130555,8.28713523 5.30780069,8.46395174 C5.48130555,8.28713523 5.65481041,8.11031873 5.83721246,7.93453997 L5.83721246,7.93453997 Z" id="Shape"></path>
                <path id="Shape" d="M5.26029321,8.78614497 C5.22959421,8.96261566 5.20094121,9.13875812 5.17638221,9.31555673 C5.20196421,9.13875812 5.22959421,8.96228743 5.26029321,8.78614497 L5.26029321,8.78614497 Z"></path>
                <path id="Shape" d="M5.44923109,8.48546387 C5.36532009,8.66164382 5.27833909,8.83782348 5.20159109,9.01487563 C5.27833909,8.83811412 5.36532009,8.66193445 5.44923109,8.48546387 L5.44923109,8.48546387 Z"></path>
                <path id="Shape" d="M5.21716388,8.88074495 C5.20181388,9.05721541 5.18339488,9.23331132 5.17316188,9.41015671 C5.18441788,9.23331132 5.20181388,9.05684086 5.21716388,8.88074495 L5.21716388,8.88074495 Z"></path>
                <path id="Shape" d="M5.31936971,8.59782698 C5.27434471,8.7740201 5.23238871,8.95062922 5.19043271,9.12723875 C5.23238871,8.95062963 5.27434371,8.7740201 5.31936971,8.59782698 L5.31936971,8.59782698 Z"></path>
                <path id="Shape" d="M5.59850612,8.30838632 C5.46956912,8.48443425 5.34779612,8.66124297 5.22704612,8.83779809 C5.34779612,8.66124297 5.46854612,8.484434 5.59850612,8.30838632 L5.59850612,8.30838632 Z"></path>
                <path id="Shape" d="M5.17484383,9.14005393 C5.22089283,9.31699112 5.27615083,9.49350836 5.34778283,9.6694657 C5.27512783,9.4936483 5.22089183,9.31699112 5.17484383,9.14005393 L5.17484383,9.14005393 Z"></path>
                <path id="Shape" d="M5.1720132,9 C5.1720132,9.17707122 5.2027122,9.35344167 5.2528542,9.52941176 C5.2027132,9.35354174 5.1720132,9.17707122 5.1720132,9 L5.1720132,9 Z"></path>
                <path id="Shape" d="M5.53058982,8.39533544 C5.42211982,8.5712815 5.31569582,8.74775234 5.21336482,8.92474721 C5.31569482,8.74775209 5.42109582,8.5712815 5.53058982,8.39533544 L5.53058982,8.39533544 Z"></path>
                <path d="M8.55611643,5.19778618 C8.58448411,5.1945043 8.61293385,5.19153011 8.64148614,5.18886359 C8.65143433,5.18792005 8.66144403,5.18705856 8.67141273,5.18619706 C8.69703184,5.18402283 8.72269198,5.18211523 8.74841366,5.18045378 C8.75973612,5.17971536 8.77101755,5.17893591 8.78234001,5.17830005 C8.80810272,5.17686424 8.83396798,5.1757566 8.85987425,5.17483357 C8.87041726,5.17444384 8.88089875,5.17393106 8.89146229,5.17362338 C8.92752186,5.17261831 8.963684,5.17200296 8.99994869,5.17200296 C9.03014192,5.17200296 9.06021208,5.1724337 9.09022071,5.17315161 C9.09990224,5.17337723 9.10954273,5.17372595 9.11920376,5.17403361 C9.13973598,5.17466947 9.16022716,5.17540791 9.18069785,5.17637195 C9.19173315,5.17686422 9.20276844,5.17743856 9.21380374,5.17805391 C9.23339241,5.17912052 9.2529811,5.18039224 9.27250823,5.18176652 C9.28317432,5.18252544 9.29381989,5.18320233 9.30444496,5.18404332 C9.32827957,5.18593039 9.35201161,5.18806361 9.37574365,5.19038144 C9.38468676,5.19124294 9.39358882,5.19210443 9.40251143,5.19302744 C9.42747418,5.19563243 9.45235487,5.19848355 9.47717405,5.20158083 C9.48958362,5.20311921 9.50195219,5.2048627 9.51432076,5.20650363 C9.53068909,5.20869839 9.54703692,5.21095466 9.56332323,5.21335453 C9.57712761,5.21538518 9.59089097,5.21751841 9.60463381,5.21969266 C9.61934071,5.22203099 9.63404759,5.2244924 9.64871347,5.22699482 C9.66303064,5.22943571 9.6773478,5.23187661 9.69162396,5.2344816 C9.70551038,5.23702505 9.71933528,5.23975312 9.73313966,5.24244015 C9.76185605,5.24801933 9.79046988,5.25390619 9.81894013,5.26012124 C9.82964724,5.26245957 9.84037486,5.26467484 9.85102044,5.26711572 C9.86784003,5.2709309 9.88457759,5.27499222 9.90129462,5.27903302 C9.91185815,5.28159698 9.92240116,5.28411993 9.93290316,5.28674542 C9.9499689,5.29101186 9.96695258,5.29542188 9.98389525,5.29991395 C9.99349473,5.3024574 10.0030532,5.30506239 10.0126116,5.30768788 C10.0303748,5.31254916 10.0480969,5.31745146 10.0657575,5.32255887 C10.0720135,5.3243639 10.0782286,5.32627148 10.0844641,5.32811754 C10.1276823,5.34085531 10.1706338,5.35422895 10.2131956,5.36844355 L10.9387152,4.72099157 L10.6712015,0.015790931 L7.60605527,0.015790931 L7.3452079,4.60335694 L8.10157704,5.27833563 C8.24357959,5.24418364 8.38863836,5.21790815 8.53630214,5.20006298 C8.54288639,5.19926302 8.54951167,5.19856561 8.55611643,5.19778618 L8.55611643,5.19778618 Z" id="Shape"></path>
                <path d="M10.6139169,5.85754981 L10.6139169,5.85754981 C10.4388804,5.67093626 10.262241,5.49536319 10.0845052,5.32813805 C10.262241,5.49536345 10.4388803,5.67093626 10.6139169,5.85754981 L10.6139169,5.85754981 Z" id="Shape"></path>
                <path id="Shape" d="M10.1781457,5.60052235 C10.0022656,5.47056235 9.82537328,5.34878935 9.64873395,5.22701535 C9.82537353,5.34981235 10.0020126,5.47158535 10.1781457,5.60052235 L10.1781457,5.60052235 Z"></path>
                <path d="M10.3804527,5.79652749 C10.204414,5.61701985 10.0281595,5.4366004 9.85104092,5.26711572 C10.0281595,5.43751222 10.2044142,5.61793079 10.3804527,5.79652749 L10.3804527,5.79652749 Z" id="Shape"></path>
                <path d="M10.2625719,5.77187242 C10.0869029,5.58577976 9.91047448,5.40951383 9.73316014,5.24246065 C9.91034795,5.40951443 10.0869029,5.58578036 10.2625719,5.77187242 L10.2625719,5.77187242 Z" id="Shape"></path>
                <path d="M10.5420644,5.83709965 C10.3663431,5.65527426 10.1896,5.48075107 10.0126527,5.30768788 C10.1896,5.48148107 10.3661386,5.65527426 10.5420644,5.83709965 L10.5420644,5.83709965 Z" id="Shape"></path>
                <path d="M10.4623559,5.81615719 C10.2864532,5.63556362 10.1101247,5.45826838 9.93294417,5.28674542 C10.1099116,5.45909357 10.2862401,5.63556362 10.4623559,5.81615719 L10.4623559,5.81615719 Z" id="Shape"></path>
                <path id="Shape" d="M10.092735,5.52959756 C9.91661494,5.42112756 9.74023186,5.31470356 9.56332321,5.21339556 C9.74049491,5.31470356 9.91661494,5.42010356 10.092735,5.52959756 L10.092735,5.52959756 Z"></path>
                <path id="Shape" d="M9.31179283,5.17485408 C9.134762,5.22090308 8.95829137,5.27616108 8.78238106,5.34779308 C8.95815135,5.27513808 9.134762,5.22192608 9.31179283,5.17485408 L9.31179283,5.17485408 Z"></path>
                <path id="Shape" d="M9.20084502,5.18047429 C9.02399833,5.26438529 8.84743376,5.35852929 8.67143325,5.46700029 C8.84743376,5.35852929 9.02399833,5.26438529 9.20084502,5.18047429 L9.20084502,5.18047429 Z"></path>
                <path id="Shape" d="M9.4209151,5.17204397 C9.24384388,5.17204397 9.06747343,5.20274297 8.89150334,5.25288497 C9.06747343,5.20171997 9.24384398,5.17204397 9.4209151,5.17204397 L9.4209151,5.17204397 Z"></path>
                <path id="Shape" d="M10.0066063,5.44721486 C9.83033058,5.36432686 9.65434735,5.27836886 9.47719457,5.20162186 C9.65434735,5.27836986 9.83033058,5.36432786 10.0066063,5.44721486 L10.0066063,5.44721486 Z"></path>
                <path d="M8.63098879,5.20006298 C8.45113766,5.32076216 8.27450888,5.49848148 8.10157702,5.72947474 L8.10157702,5.72947474 C8.2744839,5.49848135 8.45118763,5.32103968 8.63098879,5.20006298 L8.63098879,5.20006298 Z" id="Shape"></path>
                <path id="Shape" d="M9.08552822,5.18888409 C8.90846403,5.32089009 8.73203579,5.47029309 8.55611645,5.63402209 C8.73203579,5.46927009 8.90846391,5.32191409 9.08552822,5.18888409 L9.08552822,5.18888409 Z"></path>
                <path id="Shape" d="M9.80198156,5.29537404 C9.62585089,5.25341804 9.4493803,5.21964904 9.27256979,5.18178704 C9.44904038,5.22067204 9.62585122,5.25444204 9.80198156,5.29537404 L9.80198156,5.29537404 Z"></path>
                <path id="Shape" d="M9.90519646,5.32242847 C9.72872601,5.27637947 9.55266111,5.23340047 9.3757847,5.19042247 C9.55266111,5.23340147 9.72872601,5.27637947 9.90519646,5.32242847 L9.90519646,5.32242847 Z"></path>
                <path id="Shape" d="M9.71017117,5.26030345 C9.53370048,5.22960445 9.3572301,5.20095145 9.18075941,5.17639245 C9.35690187,5.20197545 9.53370048,5.23062745 9.71017117,5.26030345 L9.71017117,5.26030345 Z"></path>
                <path id="Shape" d="M9.61967353,5.21719464 C9.44320306,5.20184464 9.26710715,5.18342564 9.09026176,5.17319264 C9.26710679,5.18342564 9.44357762,5.20184464 9.61967353,5.21719464 L9.61967353,5.21719464 Z"></path>
                <path d="M12.4722523,7.3870005 C12.5625448,7.58106174 12.6370433,7.78392251 12.6940864,7.99400339 C12.6943941,7.99509051 12.6946812,7.99619815 12.6949684,7.99730577 C12.7042807,8.03158084 12.7130802,8.06604049 12.7214285,8.10070529 C12.72149,8.10099245 12.7215926,8.10127962 12.7216541,8.10156678 L13.3965918,7.34523867 L12.425424,7.29002117 C12.4413411,7.32181432 12.4567864,7.3538536 12.471842,7.38615953 C12.4719651,7.38644669 12.4721087,7.38673384 12.4722523,7.3870005 L12.4722523,7.3870005 Z" id="Shape"></path>
                <path d="M13.2244007,8.52671754 C13.057369,8.3493368 12.881309,8.17279618 12.6949889,7.99730577 C12.8804884,8.17279618 13.0569588,8.34923181 13.2244007,8.52671754 L13.2244007,8.52671754 Z" id="Shape"></path>
                <path d="M13.0016845,7.99402392 C12.8655501,7.78394303 12.6877578,7.58108227 12.4722728,7.38702102 C12.6876599,7.58106174 12.8654033,7.78394303 13.0016845,7.99402392 L13.0016845,7.99402392 Z" id="Shape"></path>
                <path d="M12.9548563,7.81943293 C12.7833766,7.64164455 12.6072179,7.4650986 12.4254446,7.29002117 L12.4254446,7.29002117 C12.606516,7.4650986 12.7831427,7.64164455 12.9548563,7.81943293 L12.9548563,7.81943293 Z" id="Shape"></path>
                <path d="M16.5345135,3.82895802 L14.3671031,1.66154763 L10.9387561,4.72101208 L10.996312,5.73332629 C10.996353,5.73334679 10.9964146,5.73338782 10.9964556,5.73340833 C11.0321254,5.75525329 11.067344,5.77779567 11.1022549,5.80076878 C11.1063983,5.80349684 11.1105622,5.80622488 11.114685,5.80897345 C11.1852248,5.85580167 11.2540826,5.9049272 11.3212379,5.95622698 C11.3251351,5.95920117 11.3290323,5.96219588 11.3329296,5.9652111 C11.4001875,6.01698265 11.4656814,6.07092843 11.5292676,6.12696642 C11.5323239,6.12965345 11.5353596,6.13236101 11.5383953,6.13506855 C11.602679,6.19205007 11.6650346,6.25112377 11.7253185,6.31226916 C11.7268569,6.31382805 11.7283542,6.31538695 11.7298926,6.31694584 C11.8221337,6.41078689 11.9095751,6.50934563 11.9918271,6.61225286 C11.9923194,6.61288871 11.9928322,6.61350408 11.9933244,6.61411942 C12.0483984,6.68310029 12.1010519,6.75402978 12.1513466,6.82678479 C12.1518389,6.82754372 12.1523927,6.82830267 12.1529055,6.82904109 C12.2031797,6.90196021 12.251013,6.97666384 12.2962413,7.05311096 C12.2965285,7.05358273 12.2967951,7.0540545 12.2971028,7.05454677 C12.3425157,7.13136311 12.3853441,7.20986141 12.4254035,7.29000064 L13.3965712,7.34521815 L16.5345135,3.82895802 L16.5345135,3.82895802 Z" id="Shape"></path>
                <path d="M11.3329501,5.9651906 C11.514251,6.13463459 11.6909059,6.31119466 11.8623619,6.49460236 C11.6909059,6.31119473 11.5143063,6.13463459 11.3329501,5.9651906 L11.3329501,5.9651906 Z" id="Shape"></path>
                <path d="M12.1529466,6.82904109 C12.3386346,7.00132771 12.5153073,7.1778306 12.6823583,7.35845285 C12.5153072,7.17787904 12.3386346,7.00132766 12.1529466,6.82904109 L12.1529466,6.82904109 Z" id="Shape"></path>
                <path d="M10.9964556,5.73340833 C11.1749447,5.90509633 11.3511758,6.08226555 11.5258674,6.26282009 C11.3511758,6.08210439 11.1749447,5.90509633 10.9964556,5.73340833 L10.9964556,5.73340833 Z" id="Shape"></path>
                <path d="M11.1147056,5.80897345 C11.2955047,5.97733214 11.472098,6.1539502 11.6441173,6.33838521 C11.4719402,6.15395027 11.2955047,5.97733214 11.1147056,5.80897345 L11.1147056,5.80897345 Z" id="Shape"></path>
                <path d="M11.993345,6.61411944 C12.177787,6.78584126 12.354395,6.96241398 12.5227567,7.14353121 C12.3542576,6.96241393 12.1778557,6.78584121 11.993345,6.61411944 L11.993345,6.61411944 Z" id="Shape"></path>
                <path d="M11.7299337,6.31692533 C11.9163264,6.48515892 12.0931425,6.66181337 12.2593454,6.8463371 C12.0930596,6.66185014 11.9163679,6.48515892 11.7299337,6.31692533 L11.7299337,6.31692533 Z" id="Shape"></path>
                <path d="M12.8265556,7.58397904 L12.8265556,7.58397904 C12.6612573,7.40378812 12.4845328,7.22724067 12.2971438,7.05456728 C12.4845328,7.22728678 12.6612573,7.40383423 12.8265556,7.58397904 L12.8265556,7.58397904 Z" id="Shape"></path>
                <path d="M11.5384364,6.13504804 C11.7204453,6.30528836 11.8971095,6.48177933 12.0678481,6.6644598 C11.8971095,6.48177939 11.7205034,6.30528836 11.5384364,6.13504804 L11.5384364,6.13504804 Z" id="Shape"></path>
                <path d="M13.2789572,10.9388074 L12.6315257,10.2133289 C12.6314846,10.213493 12.6314026,10.2136366 12.6313616,10.2137802 C12.608368,10.2825969 12.5834668,10.3505522 12.5567195,10.417605 C12.5565144,10.4180973 12.5563298,10.4185896 12.5561247,10.4190613 C12.5435305,10.4506083 12.5304645,10.4819092 12.5170909,10.513046 C12.5149987,10.5178252 12.512886,10.5226044 12.5107733,10.5274042 C12.498979,10.5544796 12.4868977,10.5814115 12.4744881,10.6081793 C12.4717395,10.6140661 12.4690114,10.6199119 12.4662629,10.6257578 C12.4538738,10.6521358 12.4411771,10.6783088 12.4282342,10.7043381 C12.4256702,10.7094661 12.4231473,10.7146145 12.4205833,10.7197219 C12.40602,10.7486434 12.391108,10.7773803 12.3758268,10.8058711 C12.3749037,10.807553 12.3740422,10.8092555 12.3731602,10.8109375 C12.3393569,10.8737648 12.3038717,10.9355461 12.2667455,10.9961992 C12.2667045,10.9962402 12.2666635,10.9963018 12.2666429,10.9963428 L13.2789572,10.9388074 L13.2789572,10.9388074 Z" id="Shape"></path>
                <path d="M13.0465026,10.4190613 C12.8756888,10.5967644 12.6984764,10.7730809 12.5170909,10.9484731 C12.6984764,10.7730809 12.8756888,10.5967644 13.0465026,10.4190613 L13.0465026,10.4190613 Z" id="Shape"></path>
                <path d="M13.0861312,10.2137802 C12.9230451,10.3925239 12.746429,10.56903 12.5567195,10.7431919 C12.746429,10.56903 12.9230451,10.3925239 13.0861312,10.2137802 L13.0861312,10.2137802 Z" id="Shape"></path>
                <path d="M13.0038998,10.5274042 C12.8318186,10.7048606 12.6555477,10.881376 12.474488,11.0568159 C12.6555477,10.881376 12.8318186,10.7048606 13.0038998,10.5274042 L13.0038998,10.5274042 Z" id="Shape"></path>
                <path d="M12.9576459,10.6257578 C12.7851731,10.8034721 12.6084171,10.9798044 12.4282342,11.1551695 C12.6084168,10.9796663 12.7854585,10.8034721 12.9576459,10.6257578 L12.9576459,10.6257578 Z" id="Shape"></path>
                <path d="M12.266766,11.3403492 C12.4515704,11.1670243 12.6280069,10.9904756 12.7961778,10.8109374 C12.6280069,10.9905342 12.4514682,11.1670243 12.266766,11.3403492 L12.266766,11.3403492 Z" id="Shape"></path>
                <path d="M12.905259,10.7197219 C12.7329941,10.897453 12.5566042,11.0740497 12.3758473,11.2491337 C12.5566042,11.0739235 12.7329941,10.897453 12.905259,10.7197219 L12.905259,10.7197219 Z" id="Shape"></path>
                <path d="M13.2789572,10.9388074 L12.2666429,10.9963633 C12.2665609,10.9964863 12.2664789,10.9966299 12.2663968,10.996753 C12.2445929,11.0323203 12.2221325,11.0674774 12.199221,11.1023062 C12.1964519,11.1064496 12.1937443,11.110634 12.1909958,11.1147773 C12.1441265,11.1853376 12.0949394,11.2542774 12.0436192,11.3214738 C12.040686,11.3252685 12.0378143,11.3290631 12.0348812,11.3328578 C11.9830071,11.4002183 11.9289587,11.4658147 11.8728182,11.5295446 C11.8702747,11.5324572 11.8677108,11.5353288 11.8651673,11.538221 C11.8080422,11.6026483 11.7488249,11.6651474 11.6875565,11.7255954 C11.6861822,11.7269697 11.6847259,11.7283235 11.6833106,11.7296978 C11.5893464,11.8221235 11.4906441,11.9096675 11.3875523,11.992022 C11.387019,11.9924527 11.3865062,11.9928835 11.3859729,11.9933142 C11.3170125,12.0483881 11.2460625,12.1010622 11.1733075,12.1513159 C11.172487,12.1518697 11.1716666,12.1524645 11.1708461,12.1530183 C11.0980706,12.203231 11.023449,12.2509617 10.9471454,12.2961695 C10.9464891,12.2965798 10.9458327,12.2969285 10.9451353,12.2973387 C10.8685856,12.3426285 10.790313,12.3852929 10.7104404,12.4252702 C10.7102763,12.4253317 10.7101327,12.4254343 10.7099891,12.4254958 L10.6547716,13.3966841 L14.1710728,16.5345648 L16.3384421,14.3671954 L13.2789572,10.9388074 L13.2789572,10.9388074 Z" id="Shape"></path>
                <path d="M11.4765572,12.1529978 C11.3043261,12.3386978 11.127726,12.5152189 10.9471454,12.6824096 C11.127726,12.5152189 11.304326,12.3386978 11.4765572,12.1529978 L11.4765572,12.1529978 Z" id="Shape"></path>
                <path d="M10.7104404,12.8267095 C10.8906588,12.6612736 11.0671756,12.4847181 11.2398521,12.2972977 C11.0671293,12.4846332 10.8905662,12.6612736 10.7104404,12.8267095 L10.7104404,12.8267095 Z" id="Shape"></path>
                <path d="M11.7027193,11.9932937 C11.5309464,12.1778284 11.3544247,12.3543218 11.1733075,12.5227055 C11.3544248,12.3543218 11.5310485,12.1777597 11.7027193,11.9932937 L11.7027193,11.9932937 Z" id="Shape"></path>
                <path d="M12.7286533,10.9967325 C12.5568168,11.1751235 12.3798073,11.3514569 12.1992415,11.5261442 C12.3798073,11.3514569 12.5568166,11.1751235 12.7286533,10.9967325 L12.7286533,10.9967325 Z" id="Shape"></path>
                <path d="M12.5730309,11.1147568 C12.4045918,11.2954829 12.2280475,11.4720585 12.0436192,11.6441686 C12.2280475,11.472006 12.4046655,11.2954829 12.5730309,11.1147568 L12.5730309,11.1147568 Z" id="Shape"></path>
                <path d="M12.2169683,11.53818 C12.0466932,11.7202142 11.8701818,11.8968586 11.6875565,12.0675917 C11.8702429,11.8968007 12.0466932,11.7202142 12.2169683,11.53818 L12.2169683,11.53818 Z" id="Shape"></path>
                <path d="M11.916964,11.7296567 C11.7487668,11.9161037 11.5720882,12.0928641 11.3875523,12.2590685 C11.5721249,12.0929055 11.7487668,11.9161865 11.916964,11.7296567 L11.916964,11.7296567 Z" id="Shape"></path>
                <path d="M12.4022505,11.3328373 C12.2327932,11.514148 12.0562332,11.690821 11.8728387,11.8622491 C12.0562332,11.6907106 12.2327932,11.514148 12.4022505,11.3328373 L12.4022505,11.3328373 Z" id="Shape"></path>
                <path d="M10.6123739,12.4725497 C10.4185178,12.5627192 10.2158621,12.6370741 10.0060274,12.6940966 C10.0048582,12.6944248 10.0037301,12.694712 10.0025814,12.6950402 C9.96834736,12.7043114 9.93392872,12.713111 9.89934599,12.7214592 C9.8990178,12.7215208 9.89873064,12.7216233 9.89838194,12.7216849 L10.6547306,13.396643 L10.7099481,12.4254548 C10.7096609,12.4255984 10.7093943,12.4257215 10.7091071,12.425865 C10.6778472,12.4414949 10.6463002,12.4567146 10.6145481,12.4715241 C10.6138507,12.4718523 10.6130918,12.4721805 10.6123739,12.4725497 L10.6123739,12.4725497 Z" id="Shape"></path>
                <path d="M9.89936649,13.2244519 C10.0768189,13.0571609 10.2532193,12.8808274 10.4287783,12.6950402 C10.2532193,12.8808274 10.0767136,13.0571609 9.89936649,13.2244519 L9.89936649,13.2244519 Z" id="Shape"></path>
                <path d="M11.1439804,12.4258651 C10.9689644,12.6070922 10.7923407,12.7835629 10.6145686,12.9552768 C10.7924556,12.7835629 10.9689645,12.6068544 11.1439804,12.4258651 L11.1439804,12.4258651 Z" id="Shape"></path>
                <path d="M10.0060479,13.0019615 C10.2158621,12.8657486 10.4185178,12.6880199 10.6123944,12.4725497 C10.4185178,12.6879709 10.2158621,12.8656996 10.0060479,13.0019615 L10.0060479,13.0019615 Z" id="Shape"></path>
                <path d="M13.3966123,7.34523867 L12.7216746,8.10156678 C12.7217362,8.10175139 12.7217567,8.101936 12.7217977,8.10212059 C12.7559087,8.24400006 12.7821431,8.38891525 12.7999678,8.53645596 C12.8007678,8.54291714 12.8014447,8.54939884 12.8021831,8.55588055 C12.8054649,8.5843508 12.8084802,8.61290308 12.8111467,8.64155794 C12.8120697,8.6514651 12.8129312,8.66141327 12.8138132,8.67138196 C12.8159669,8.6970421 12.8178951,8.72278429 12.8195565,8.74858803 C12.8202949,8.75982845 12.8210333,8.77104834 12.8216897,8.78232979 C12.8231255,8.80813351 12.8242127,8.8340398 12.8251562,8.86000763 C12.8255459,8.87053013 12.8260587,8.88101162 12.8263664,8.89155463 C12.8273715,8.9275937 12.8279868,8.96375584 12.8279868,9.00004103 C12.8279868,9.03023427 12.8275561,9.06030443 12.8268382,9.09031306 C12.8266125,9.09999459 12.8262433,9.10961457 12.8259357,9.11927558 C12.8253203,9.13982831 12.8245614,9.16034001 12.8236178,9.1808107 C12.823105,9.191846 12.8225307,9.20284028 12.8219359,9.21383455 C12.8208488,9.23348476 12.8195975,9.25305292 12.8182027,9.2726211 C12.8174643,9.28328719 12.8167669,9.29395327 12.8159259,9.30457834 C12.8140389,9.32835141 12.8119261,9.35206294 12.8096083,9.37571294 C12.8087263,9.38471757 12.8078443,9.39374272 12.8069213,9.40272685 C12.8042958,9.42760754 12.8014652,9.45244722 12.7984089,9.47716382 C12.7968501,9.48971698 12.795086,9.50218811 12.7934041,9.51467973 C12.7912504,9.53088398 12.7890146,9.54706771 12.7866352,9.56318991 C12.784584,9.57709686 12.7824508,9.59096277 12.7802561,9.60480816 C12.7779178,9.61945352 12.7754769,9.63403733 12.772995,9.64862116 C12.7705541,9.66299987 12.7680927,9.67739909 12.7654672,9.69175728 C12.7629442,9.70566422 12.7602162,9.7194891 12.7575291,9.73331399 C12.7520115,9.76166116 12.7461862,9.78986476 12.7400942,9.8179658 C12.7376533,9.82904212 12.735356,9.84013896 12.7328331,9.85119476 C12.7290384,9.86787078 12.7250181,9.88446476 12.7210183,9.90105871 C12.7184133,9.91176583 12.7158494,9.92251395 12.7131624,9.93320056 C12.7089574,9.95002016 12.704609,9.96679874 12.7001579,9.98353628 C12.6975324,9.99352547 12.6947839,10.0034942 12.6920763,10.0134629 C12.6873381,10.0307747 12.6825384,10.0480866 12.677554,10.0652959 C12.6754208,10.0727212 12.673144,10.0801054 12.6709698,10.0874896 C12.659155,10.1274464 12.646766,10.1671571 12.6337205,10.2065395 C12.6329821,10.2087753 12.6322847,10.2110931 12.6315258,10.2133289 L13.2789572,10.9388074 L17.9841989,10.6712527 L17.9841988,7.60608603 L13.3966123,7.34523867 L13.3966123,7.34523867 Z" id="Shape"></path>
                <path d="M13.2069862,10.0134424 C13.0342543,10.190262 12.8592797,10.3670819 12.6775744,10.5428541 C12.8592797,10.3672913 13.0335067,10.190262 13.2069862,10.0134424 L13.2069862,10.0134424 Z" id="Shape"></path>
                <path id="Shape" d="M12.8137722,8.67138196 C12.9222422,8.84719619 13.0163872,9.02385421 13.1002982,9.20079372 C13.0184342,9.0237136 12.9222432,8.8473368 12.8137722,8.67138196 L12.8137722,8.67138196 Z"></path>
                <path d="M13.2295696,9.93318003 C13.0583874,10.1100821 12.88136,10.2865528 12.7001579,10.4625918 C12.88136,10.2865528 13.0583874,10.110298 13.2295696,9.93318003 L13.2295696,9.93318003 Z" id="Shape"></path>
                <path d="M13.25043,9.85117424 C13.0803928,10.0280079 12.9002457,10.2044059 12.7210182,10.380586 C12.9002466,10.2044059 13.0813126,10.0284435 13.25043,9.85117424 L13.25043,9.85117424 Z" id="Shape"></path>
                <path id="Shape" d="M12.8216692,8.78230926 C12.8933002,8.95817402 12.9475362,9.13473782 12.9946082,9.31172103 C12.9475362,9.13473782 12.8943242,8.95817415 12.8216692,8.78230926 L12.8216692,8.78230926 Z"></path>
                <path id="Shape" d="M12.8021626,8.55588055 C12.9658916,8.73180191 13.1163176,8.90823022 13.2493476,9.08529231 C13.1163176,8.90823022 12.9658916,8.73180191 12.8021626,8.55588055 L12.8021626,8.55588055 Z"></path>
                <path d="M12.7217772,8.10212059 C12.9526568,8.2750576 13.1300535,8.45171988 13.2511889,8.63153236 C13.1306092,8.45169488 12.9527957,8.2750576 12.7217772,8.10212059 L12.7217772,8.10212059 Z" id="Shape"></path>
                <path d="M12.6337204,10.6168809 C12.8194227,10.4417481 12.9952131,10.2652471 13.1631322,10.0874691 C12.9952129,10.2652471 12.8194227,10.4417481 12.6337204,10.6168809 L12.6337204,10.6168809 Z" id="Shape"></path>
                <path id="Shape" d="M12.9058263,9.18079018 C12.8802433,9.35769928 12.8515913,9.53427934 12.8219153,9.71020194 C12.8515913,9.53395061 12.8802433,9.35737023 12.9058263,9.18079018 L12.9058263,9.18079018 Z"></path>
                <path id="Shape" d="M12.9294924,9.27260056 C12.8926534,9.44929761 12.8578614,9.62599467 12.8159054,9.80201232 C12.8578614,9.6256553 12.8926534,9.44895791 12.9294924,9.27260056 L12.9294924,9.27260056 Z"></path>
                <path id="Shape" d="M13.0984835,9.56316939 C12.9961525,9.74007497 12.8897295,9.91645861 12.7802355,10.0925812 C12.8897295,9.91645861 12.9971765,9.74007497 13.0984835,9.56316939 L13.0984835,9.56316939 Z"></path>
                <path id="Shape" d="M13.0430705,9.4771433 C12.9652995,9.65428917 12.8772945,9.83027758 12.7933835,10.0065551 C12.8772945,9.83027729 12.9652995,9.65428917 13.0430705,9.4771433 L13.0430705,9.4771433 Z"></path>
                <path id="Shape" d="M12.9409538,9.37569239 C12.8969518,9.55216285 12.8529498,9.72903556 12.8069008,9.90510416 C12.8529498,9.7286337 12.8969518,9.55216324 12.9409538,9.37569239 L12.9409538,9.37569239 Z"></path>
                <path id="Shape" d="M12.8709401,9.09027202 C12.8596841,9.26724275 12.8412641,9.44308826 12.8259151,9.61968379 C12.8412641,9.44308826 12.8596841,9.26724238 12.8709401,9.09027202 L12.8709401,9.09027202 Z"></path>
                <path d="M13.2694854,9.73329348 C13.1019423,9.91057648 12.9256791,10.0869615 12.7400736,10.2627052 C12.9256791,10.0869615 13.1025644,9.91057648 13.2694854,9.73329348 L13.2694854,9.73329348 Z" id="Shape"></path>
                <path id="Shape" d="M13.1409996,9.64860063 C13.0192266,9.8250713 12.8964296,10.0017936 12.7654466,10.1780124 C12.8964296,10.0020453 13.0192266,9.8250713 13.1409996,9.64860063 L13.1409996,9.64860063 Z"></path>
                <path id="Shape" d="M12.8263459,8.8915136 C12.8764879,9.06738362 12.9071869,9.24385424 12.9071869,9.42092536 C12.9071869,9.24385415 12.8764879,9.06738362 12.8263459,8.8915136 L12.8263459,8.8915136 Z"></path>
                <path d="M7.58135916,12.556299 C7.54966858,12.5436638 7.51822414,12.5305568 7.4869643,12.5171011 C7.48216455,12.5150089 7.47738533,12.5128962 7.47258559,12.5107835 C7.44548963,12.4989893 7.41853724,12.4868874 7.39176947,12.4744573 C7.38592364,12.4717498 7.38009832,12.4690217 7.37427299,12.4662936 C7.3478334,12.4539046 7.32157841,12.4411463 7.29546703,12.4281624 C7.29042116,12.4256394 7.28535476,12.4231985 7.28032939,12.4206551 C7.25120276,12.4059687 7.22230178,12.3909747 7.19360589,12.3756114 C7.19212905,12.3748114 7.19061118,12.374073 7.18915486,12.3732731 C7.12624546,12.3394288 7.06436164,12.303882 7.00360597,12.2666737 L7.06118232,13.2790084 L7.78670186,12.6315565 C7.78664033,12.631536 7.78659929,12.6315154 7.78653778,12.6315154 C7.71755691,12.6084603 7.64943753,12.583518 7.58228222,12.5567298 C7.58197451,12.5565862 7.58166685,12.5564426 7.58135916,12.556299 L7.58135916,12.556299 Z" id="Shape"></path>
                <path d="M7.00362647,12.2666532 L7.00362647,12.2666532 C7.17691725,12.451443 7.3535439,12.6279816 7.53303824,12.796065 C7.35348533,12.6279816 7.1769172,12.451443 7.00362647,12.2666532 L7.00362647,12.2666532 Z" id="Shape"></path>
                <path d="M7.1936264,12.3755909 C7.36880303,12.5561598 7.54523193,12.7323894 7.72303816,12.9050026 C7.54523193,12.7331126 7.36880303,12.5561598 7.1936264,12.3755909 L7.1936264,12.3755909 Z" id="Shape"></path>
                <path d="M7.39176947,12.4744778 C7.5671204,12.6553327 7.74368054,12.8317038 7.92118124,13.0038896 C7.74368054,12.8317038 7.56712027,12.6553327 7.39176947,12.4744778 L7.39176947,12.4744778 Z" id="Shape"></path>
                <path d="M8.11169396,13.086121 C7.93290184,12.9229123 7.75634264,12.7463448 7.5822822,12.5567092 C7.75639584,12.7463448 7.93290184,12.9229123 8.11169396,13.086121 L8.11169396,13.086121 Z" id="Shape"></path>
                <path d="M7.4869643,12.5171011 C7.66228454,12.6988354 7.83864004,12.8758602 8.01637606,13.0465129 C7.83864004,12.8758602 7.66228454,12.6988354 7.4869643,12.5171011 L7.4869643,12.5171011 Z" id="Shape"></path>
                <path d="M7.29548753,12.4281624 C7.47076385,12.6087148 7.64728049,12.7855651 7.8248993,12.9575741 C7.6471426,12.7855651 7.47076385,12.6087148 7.29548753,12.4281624 L7.29548753,12.4281624 Z" id="Shape"></path>
                <path d="M9.44412969,12.8021728 C9.41561842,12.8054547 9.38702512,12.8084904 9.35832923,12.8111569 C9.34848361,12.8120594 9.33857645,12.8129209 9.32871033,12.8137619 C9.30300915,12.8159567 9.27720543,12.8178848 9.25136068,12.8195462 C9.24014079,12.8202846 9.22892087,12.8210231 9.21765995,12.8216794 C9.1918357,12.8231153 9.16592943,12.8242024 9.14000264,12.8251459 C9.12948013,12.8255357 9.11899864,12.8260484 9.10845563,12.8263561 C9.07239606,12.8273612 9.03623392,12.8279765 8.99996923,12.8279765 C8.969776,12.8279765 8.93970583,12.8275458 8.90969721,12.8268279 C8.90001567,12.8266023 8.89039569,12.826233 8.88071416,12.8259254 C8.86018193,12.82531 8.83967023,12.8245511 8.81922007,12.8236075 C8.80818476,12.8230947 8.79714948,12.8225204 8.78615519,12.8219256 C8.76654599,12.8208385 8.74695732,12.8195873 8.72743017,12.8181925 C8.71676409,12.817454 8.70607748,12.8167566 8.6954319,12.8159157 C8.67172037,12.8140286 8.64807037,12.8119159 8.62448192,12.8095981 C8.61531318,12.8087161 8.60612394,12.8078135 8.59697571,12.8068495 C8.57219757,12.804265 8.54750147,12.8014549 8.52288743,12.7983987 C8.51029324,12.7968398 8.49776059,12.7950758 8.48524845,12.7933938 C8.46910573,12.7912401 8.45298353,12.7890043 8.43690235,12.7866249 C8.4229544,12.7845738 8.40904745,12.78242 8.39514053,12.7802253 C8.38057722,12.7779074 8.36607544,12.7754871 8.35157367,12.7729847 C8.33709241,12.7705232 8.32263166,12.7680619 8.30821193,12.7654363 C8.2945101,12.7629544 8.28084933,12.7602264 8.267168,12.7575598 C8.23828753,12.7520012 8.20953012,12.7460323 8.18089577,12.7398172 C8.17025019,12.7374789 8.1595636,12.7352431 8.14897956,12.7328432 C8.13213946,12.729028 8.11540191,12.7249667 8.09864385,12.7209259 C8.08810084,12.7183825 8.07755781,12.715839 8.06703531,12.713193 C8.0500516,12.7089471 8.03312946,12.7045781 8.01622782,12.700086 C8.00646424,12.697481 7.99672119,12.6948556 7.98699865,12.692189 C7.96946113,12.6873688 7.95192362,12.682528 7.93444767,12.6774821 C7.92757624,12.6754925 7.92074584,12.6734003 7.91387443,12.6713491 C7.87198953,12.6589805 7.8304123,12.6460377 7.78914275,12.6322948 C7.78832228,12.6320077 7.78750182,12.631782 7.78670186,12.6314949 L7.06118232,13.2789469 L7.328737,17.984168 L10.3939037,17.984168 L10.6547511,13.396602 L9.89840245,12.7216438 C9.89821784,12.7217053 9.89801272,12.7217464 9.89782811,12.7217874 C9.75594865,12.7558778 9.61105396,12.7821123 9.46353378,12.799937 C9.4570726,12.8007575 9.45059089,12.8014344 9.44412969,12.8021728 L9.44412969,12.8021728 Z" id="Shape"></path>
                <path d="M8.1808753,12.7398377 C8.35659061,12.9258968 8.53306128,13.1033876 8.71028707,13.2692495 C8.53306115,13.1021639 8.35659061,12.9258968 8.1808753,12.7398377 L8.1808753,12.7398377 Z" id="Shape"></path>
                <path id="Shape" d="M8.30819145,12.7654569 C8.48424461,12.8964399 8.66079873,13.0192369 8.83760321,13.1420339 C8.66104934,13.0192369 8.48424461,12.8974629 8.30819145,12.7654569 L8.30819145,12.7654569 Z"></path>
                <path d="M7.93444767,12.6775232 C8.11029845,12.859162 8.28697555,13.032679 8.46385943,13.2069349 C8.28697555,13.0334179 8.11029845,12.859162 7.93444767,12.6775232 L7.93444767,12.6775232 Z" id="Shape"></path>
                <path d="M8.01620731,12.7001271 C8.19232165,12.8815685 8.3684362,13.0580388 8.54561908,13.2295388 C8.36864986,13.0572106 8.19210798,12.8807403 8.01620731,12.7001271 L8.01620731,12.7001271 Z" id="Shape"></path>
                <path d="M8.09862336,12.7209464 C8.27487821,12.9004541 8.45091739,13.0817845 8.62803513,13.2503582 C8.45070151,13.0808735 8.27466254,12.9013659 8.09862336,12.7209464 L8.09862336,12.7209464 Z" id="Shape"></path>
                <path d="M7.78914275,12.6323359 C7.96430743,12.8186309 8.14086508,12.9943602 8.31855451,13.1617476 C8.14086508,12.9943602 7.96413328,12.8186312 7.78914275,12.6323359 L7.78914275,12.6323359 Z" id="Shape"></path>
                <path d="M9.99292503,12.7218079 C9.81997169,12.9527482 9.64331774,13.1300525 9.46351327,13.2512197 C9.64334274,13.1306083 9.81997169,12.9527482 9.99292503,12.7218079 L9.99292503,12.7218079 Z" id="Shape"></path>
                <path id="Shape" d="M8.99998974,12.9071971 C9.17706095,12.9071971 9.35343141,12.8764981 9.5294015,12.8263561 C9.35343151,12.8764981 9.17696089,12.9071971 8.99998974,12.9071971 L8.99998974,12.9071971 Z"></path>
                <path id="Shape" d="M9.14002316,12.9946184 C9.31677343,12.9475464 9.4933839,12.8933114 9.66943493,12.8216794 C9.4933839,12.8943344 9.31677343,12.9485694 9.14002316,12.9946184 L9.14002316,12.9946184 Z"></path>
                <path id="Shape" d="M9.35834975,13.2503808 C9.53528439,13.1173508 9.71183933,12.9669248 9.88776152,12.8021728 C9.71183933,12.9679478 9.53528439,13.1163278 9.35834975,13.2503808 L9.35834975,13.2503808 Z"></path>
                <path id="Shape" d="M9.2513812,13.1023339 C9.42827298,13.0194459 9.60488391,12.9232549 9.78079297,12.8137619 C9.60474356,12.9232559 9.42813263,13.0184229 9.2513812,13.1023339 L9.2513812,13.1023339 Z"></path>
                <path id="Shape" d="M8.88071418,12.8259459 C9.05755957,12.8412959 9.23328055,12.8597149 9.41012595,12.8709709 C9.23365511,12.8597149 9.05755921,12.8402719 8.88071418,12.8259459 L8.88071418,12.8259459 Z"></path>
                <path id="Shape" d="M8.48522798,12.7934143 C8.6615062,12.8773253 8.83778441,12.9653293 9.01463975,13.0431013 C8.83778441,12.9653293 8.6615062,12.8773253 8.48522798,12.7934143 L8.48522798,12.7934143 Z"></path>
                <path id="Shape" d="M8.39512006,12.7802458 C8.57141744,12.8887158 8.74771456,12.9971868 8.92453183,13.0995178 C8.74771456,12.9971868 8.57115724,12.8887168 8.39512006,12.7802458 L8.39512006,12.7802458 Z"></path>
                <path id="Shape" d="M8.59695524,12.80687 C8.77303116,12.854965 8.94989642,12.899991 9.12636701,12.943993 C8.94989642,12.899991 8.77342583,12.854965 8.59695524,12.80687 L8.59695524,12.80687 Z"></path>
                <path id="Shape" d="M8.69543194,12.8159157 C8.87156315,12.8578717 9.04871249,12.8926637 9.22484371,12.9295027 C9.0483729,12.8926637 8.87156315,12.8578707 8.69543194,12.8159157 L8.69543194,12.8159157 Z"></path>
                <path id="Shape" d="M8.78615521,12.8219256 C8.96218782,12.8516016 9.1388774,12.8802536 9.31556697,12.9058366 C9.1388774,12.8802536 8.96218782,12.8526246 8.78615521,12.8219256 L8.78615521,12.8219256 Z"></path>
                <path d="M6.88545854,12.1911291 C6.8147752,12.1442188 6.7457533,12.0949702 6.67847492,12.0435884 C6.67470077,12.0406963 6.67096763,12.0378451 6.66721399,12.034953 C6.59979202,11.9830789 6.53415456,11.928969 6.47040418,11.8727874 C6.46755304,11.870285 6.46472243,11.8677621 6.46189182,11.8652391 C6.39742354,11.808114 6.33490384,11.7488557 6.27443535,11.6875462 C6.27308158,11.6861719 6.27172781,11.6847976 6.27039455,11.6834233 C6.17794829,11.5893772 6.09032229,11.4906133 6.00792677,11.3874599 C6.00753704,11.3870087 6.00716784,11.3865369 6.00679862,11.3860651 C5.95166316,11.3169817 5.89890704,11.2459497 5.84857133,11.1730921 C5.84809956,11.1724152 5.84762779,11.1717589 5.84715602,11.1710615 C5.79684081,11.0981013 5.74898701,11.0233362 5.70371767,10.9468685 C5.70345102,10.9463967 5.70318436,10.945925 5.7028972,10.9454942 C5.65748429,10.8686574 5.61465585,10.7901386 5.57457597,10.7099993 L5.57457597,10.7099993 L4.60336722,10.6548023 L1.46542494,14.1710625 L3.63283533,16.3384729 L7.06120282,13.2790084 L7.00362647,12.2666737 C6.96779252,12.2447262 6.93243034,12.2221018 6.89739635,12.1990261 C6.89341706,12.1963801 6.8894173,12.1937751 6.88545854,12.1911291 L6.88545854,12.1911291 Z" id="Shape"></path>
                <path d="M5.57455544,10.7099789 C5.73991196,10.8901384 5.91660825,11.0666551 6.10396721,11.2393906 C5.91652357,11.0667012 5.73991196,10.8901845 5.57455544,10.7099789 L5.57455544,10.7099789 Z" id="Shape"></path>
                <path d="M5.84853027,11.1730716 C6.01694825,11.3541822 6.19346462,11.5307547 6.37794204,11.7024834 C6.1935333,11.5307547 6.01694832,11.3541821 5.84853027,11.1730716 L5.84853027,11.1730716 Z" id="Shape"></path>
                <path d="M6.80382659,12.216958 C6.62175623,12.0467615 6.44513113,11.8702095 6.27441482,11.6875462 C6.4451891,11.8702095 6.62181414,12.0467004 6.80382659,12.216958 L6.80382659,12.216958 Z" id="Shape"></path>
                <path d="M5.70367662,10.9468685 C5.87075969,11.1274401 6.04738167,11.3039914 6.23308838,11.4762803 C6.04738167,11.3039914 5.87075969,11.1274401 5.70367662,10.9468685 L5.70367662,10.9468685 Z" id="Shape"></path>
                <path d="M6.67847492,12.0435884 C6.85055602,12.2280324 7.02709659,12.4046748 7.20788668,12.5730002 C7.02704409,12.4046748 6.85050357,12.2280324 6.67847492,12.0435884 L6.67847492,12.0435884 Z" id="Shape"></path>
                <path d="M6.47038365,11.8727874 C6.64187004,12.0561999 6.81848776,12.232849 6.99979542,12.4021992 C6.81848776,12.2327151 6.64187004,12.0561999 6.47038365,11.8727874 L6.47038365,11.8727874 Z" id="Shape"></path>
                <path d="M6.00788572,11.38746 C6.17408196,11.5719414 6.35082836,11.7486443 6.53729748,11.9168717 C6.35086977,11.7486077 6.17408196,11.5719414 6.00788572,11.38746 L6.00788572,11.38746 Z" id="Shape"></path>
                <path d="M6.89739635,12.1990056 C7.07199285,12.3795963 7.24822492,12.5566555 7.42680811,12.7284174 L7.42680811,12.7284174 C7.24822492,12.5566555 7.07199285,12.3795963 6.89739635,12.1990056 L6.89739635,12.1990056 Z" id="Shape"></path>
                <path d="M5.52760414,10.6127123 C5.4372706,10.418528 5.36277207,10.2155442 5.305688,10.0053402 C5.30552391,10.0046839 5.30531878,10.0040275 5.30515469,10.0033506 C5.29571931,9.96856274 5.28677621,9.93359029 5.27830487,9.89839219 L4.60332617,10.6547818 L5.57453492,10.7099788 C5.57453492,10.7099788 5.57453492,10.7099788 5.57453492,10.7099583 C5.55869989,10.6782882 5.54329559,10.6463515 5.52832204,10.6142097 C5.52807591,10.6136969 5.52785027,10.6132251 5.52760414,10.6127123 L5.52760414,10.6127123 Z" id="Shape"></path>
                <path d="M5.27830487,9.89839219 L5.27830487,9.89839219 C5.44533832,10.0759318 5.62167427,10.2523335 5.80771663,10.427804 C5.62207859,10.2523335 5.44533871,10.0759319 5.27830487,9.89839219 L5.27830487,9.89839219 Z" id="Shape"></path>
                <path d="M5.305688,10.0053402 C5.44186998,10.2155442 5.61959652,10.4185485 5.83509976,10.6127123 C5.61959652,10.4185485 5.44182106,10.2155647 5.305688,10.0053402 L5.305688,10.0053402 Z" id="Shape"></path>
                <path d="M6.0577338,11.1436215 C5.87632872,10.9685118 5.69985813,10.7919277 5.52832204,10.6142097 C5.69985813,10.7920412 5.87609381,10.9685118 6.0577338,11.1436215 L6.0577338,11.1436215 Z" id="Shape"></path>
                <path id="Shape" d="M8.83914936,9.001023 L8.83914936,9 L8.83914936,9 L8.83914936,9.001023 Z"></path>
                <path id="Shape" d="M8.99996923,8.83915962 L9.00099223,8.83915962 L9.00099223,8.83915962 L8.99996923,8.83915962 L8.99996923,8.83915962 L8.99996923,8.83915962 Z"></path>
                <path id="Shape" d="M8.99996923,8.83915962 L8.99996923,8.83915962 L9.00099223,8.83915962 L8.99996923,8.83915962 Z"></path>
                <path id="Shape" d="M11.9918476,6.61223235 C12.0164066,6.64395435 12.0419896,6.67465435 12.0665486,6.70535335 C12.0419896,6.67465435 12.0174296,6.64395535 11.9918476,6.61223235 L11.9918476,6.61223235 Z"></path>
                <path id="Shape" d="M11.3212584,5.956227 C11.4977287,6.104606 11.674199,6.254009 11.8506702,6.404435 C11.6741999,6.254009 11.4977287,6.104606 11.3212584,5.956227 L11.3212584,5.956227 Z"></path>
                <path id="Shape" d="M11.5292882,6.12694592 C11.6817612,6.26099892 11.8332102,6.39607592 11.9846592,6.53115192 C11.8332102,6.39607592 11.6827842,6.26099892 11.5292882,6.12694592 L11.5292882,6.12694592 Z"></path>
                <path id="Shape" d="M11.7253596,6.31224866 C11.8021076,6.39001966 11.8768086,6.46779166 11.9535566,6.54556266 C11.8768086,6.46779166 11.8021076,6.39002066 11.7253596,6.31224866 L11.7253596,6.31224866 Z"></path>
                <path id="Shape" d="M11.102255,5.80076878 C11.2787255,5.93686878 11.4560695,6.07296778 11.6316667,6.21009078 C11.4560695,6.07296778 11.2787255,5.93686878 11.102255,5.80076878 L11.102255,5.80076878 Z"></path>
                <path id="Shape" d="M10.996312,5.73330578 L10.996312,5.73330578 L11.003476,5.73842178 L10.996312,5.73330578 Z"></path>
                <path id="Shape" d="M12.2962824,7.05313147 C12.3106084,7.07666747 12.3239114,7.10020347 12.3392614,7.12476247 C12.3239124,7.10020347 12.3106094,7.07666747 12.2962824,7.05313147 L12.2962824,7.05313147 Z"></path>
                <path id="Shape" d="M12.1513877,6.82678479 C12.1759467,6.86464679 12.2035767,6.90250979 12.2291587,6.93934879 C12.2025537,6.90250979 12.1759477,6.86464779 12.1513877,6.82678479 L12.1513877,6.82678479 Z"></path>
                <path id="Shape" d="M9.00099223,9.001023 L9.00099223,9 L8.99996923,9 L9.00099223,9.001023 Z"></path>
                <path id="Shape" d="M9.00099223,8.83915962 L9.00099223,8.83915962 L8.99996923,8.83915962 L9.00099223,8.83915962 Z"></path>
                <path id="Shape" d="M8.00199735,12.8259615 C7.82527485,12.7215845 7.64930809,12.6161835 7.47258559,12.5107835 C7.64930809,12.6161835 7.82527485,12.7215845 8.00199735,12.8259615 L8.00199735,12.8259615 Z"></path>
                <path id="Shape" d="M7.90368476,12.8735901 C7.72680053,12.7385141 7.55115722,12.6024141 7.37427299,12.4663141 C7.55053676,12.6024141 7.72680053,12.7385141 7.90368476,12.8735901 L7.90368476,12.8735901 Z"></path>
                <path id="Shape" d="M7.79472376,12.6335419 L7.79472376,12.6335419 L7.78653776,12.6314949 L7.79472376,12.6335419 Z"></path>
                <path id="Shape" d="M7.62740816,12.576765 C7.61205816,12.570625 7.59670916,12.563462 7.58135916,12.556299 C7.59670916,12.563463 7.61205816,12.570626 7.62740816,12.576765 L7.62740816,12.576765 Z"></path>
                <path id="Shape" d="M7.41123237,12.4899095 C7.33755437,12.4500005 7.26182937,12.4131615 7.18917537,12.3732525 C7.26182937,12.4131615 7.33755437,12.4500005 7.41123237,12.4899095 L7.41123237,12.4899095 Z"></path>
                <path id="Shape" d="M7.80976166,12.7951851 C7.63329131,12.6693181 7.4561031,12.5475451 7.2803499,12.4206551 C7.4561031,12.5475441 7.6332906,12.6693181 7.80976166,12.7951851 L7.80976166,12.7951851 Z"></path>
                <path id="Shape" d="M9.34863185,12.9392621 C9.17186686,12.9085631 8.99527859,12.8707001 8.81922009,12.8236281 C8.99527859,12.8696771 9.17186686,12.9075391 9.34863185,12.9392621 L9.34863185,12.9392621 Z"></path>
                <path id="Shape" d="M9.25684195,13.0044345 C9.08006315,12.9501995 8.90346938,12.8877775 8.72743019,12.8181925 C8.90346938,12.8877775 9.08006333,12.9501985 9.25684195,13.0044345 L9.25684195,13.0044345 Z"></path>
                <path id="Shape" d="M9.05227873,13.2200212 C8.87522184,13.0910842 8.69875121,12.9508912 8.52286696,12.7984192 C8.69889788,12.9508912 8.87536837,13.0910842 9.05227873,13.2200212 L9.05227873,13.2200212 Z"></path>
                <path id="Shape" d="M8.96629365,13.1243364 C8.7895236,13.0168894 8.61297809,12.9053484 8.43688189,12.7866454 C8.61297809,12.9053484 8.7895236,13.0158664 8.96629365,13.1243364 L8.96629365,13.1243364 Z"></path>
                <path id="Shape" d="M9.15389372,13.1247761 C8.97696396,13.0306321 8.80049337,12.9252311 8.62448196,12.8095981 C8.80049337,12.9252311 8.97681095,13.0306321 9.15389372,13.1247761 L9.15389372,13.1247761 Z"></path>
                <path id="Shape" d="M9.43912948,12.8841329 C9.26205741,12.8841329 9.08570711,12.8626439 8.90971771,12.8268279 C9.08570723,12.8626439 9.26205752,12.8841329 9.43912948,12.8841329 L9.43912948,12.8841329 Z"></path>
                <path id="Shape" d="M9.97354148,12.7999576 C9.79763113,12.8398666 9.62004006,12.8736356 9.44412971,12.9104746 C9.62060012,12.8736356 9.79763113,12.8398666 9.97354148,12.7999576 L9.97354148,12.7999576 Z"></path>
                <path id="Shape" d="M8.88096497,13.1342322 C8.70399595,13.0185982 8.52777446,12.8978482 8.35155321,12.7730052 C8.52777446,12.8978492 8.7039957,13.0185992 8.88096497,13.1342322 L8.88096497,13.1342322 Z"></path>
                <path id="Shape" d="M9.92648111,12.7216849 L9.92648111,12.7216849 C9.91624811,12.7247549 9.90703811,12.7268019 9.89782811,12.7288479 C9.90703811,12.7257779 9.91727111,12.7237319 9.92648111,12.7216849 L9.92648111,12.7216849 Z"></path>
                <path id="Shape" d="M9.85814262,12.8111569 C9.68216084,12.8561819 9.50507915,12.8991609 9.32873085,12.9411169 C9.50507915,12.8991609 9.68179432,12.8561819 9.85814262,12.8111569 L9.85814262,12.8111569 Z"></path>
                <path id="Shape" d="M9.74709224,12.8195462 C9.57083661,12.8553622 9.39458067,12.8942472 9.21768047,12.9259702 C9.39458067,12.8932242 9.57083661,12.8563852 9.74709224,12.8195462 L9.74709224,12.8195462 Z"></path>
                <path id="Shape" d="M9.63788792,12.8251459 C9.46130263,12.8445889 9.28540557,12.8701709 9.10847616,12.8855209 C9.28540557,12.8701709 9.46130263,12.8445889 9.63788792,12.8251459 L9.63788792,12.8251459 Z"></path>
                <path id="Shape" d="M8.44328619,12.9773592 C8.26646348,12.8780982 8.09069662,12.7737212 7.91387443,12.6713902 C8.09069662,12.7737212 8.26593581,12.8780982 8.44328619,12.9773592 L8.44328619,12.9773592 Z"></path>
                <path id="Shape" d="M8.67837086,13.0807878 C8.50178678,12.9641308 8.32452243,12.8525908 8.1489591,12.7328638 C8.3245221,12.8536138 8.50178678,12.9641308 8.67837086,13.0807878 L8.67837086,13.0807878 Z"></path>
                <path id="Shape" d="M7.78670184,12.6315359 C7.82661084,12.6458619 7.86754284,12.6571189 7.90847484,12.6714449 C7.86754384,12.6571179 7.82661084,12.6448379 7.78670184,12.6315359 L7.78670184,12.6315359 L7.78670184,12.6315359 Z"></path>
                <path id="Shape" d="M8.59642658,13.0989995 C8.41984163,12.9721095 8.24325633,12.8452195 8.06701482,12.7132135 C8.24291288,12.8452195 8.41949784,12.9721095 8.59642658,13.0989995 L8.59642658,13.0989995 Z"></path>
                <path id="Shape" d="M8.51638991,13.0862031 C8.33954767,12.9562431 8.1630772,12.8252601 7.98697814,12.6922301 C8.1630772,12.8252601 8.33954803,12.9562441 8.51638991,13.0862031 L8.51638991,13.0862031 Z"></path>
                <path id="Shape" d="M8.79655928,13.1505304 C8.61982403,13.0267104 8.44361828,12.8906104 8.26714752,12.7575804 C8.44335353,12.8906104 8.61955953,13.0267104 8.79655928,13.1505304 L8.79655928,13.1505304 Z"></path>
                <path id="Shape" d="M5.74378815,11.0140562 C5.73048515,10.9905202 5.71718215,10.9669842 5.70285615,10.9454942 C5.71718215,10.9669842 5.73048515,10.9905202 5.74378815,11.0140562 L5.74378815,11.0140562 Z"></path>
                <path id="Shape" d="M5.91772297,11.272348 C5.89418697,11.238579 5.87065097,11.205833 5.84711497,11.171041 C5.87065097,11.205833 5.89418697,11.238578 5.91772297,11.272348 L5.91772297,11.272348 Z"></path>
                <path id="Shape" d="M6.88654329,12.2418161 C6.74430329,12.1169731 6.60308729,11.9911061 6.46187129,11.8652391 C6.60308829,11.9911061 6.74430429,12.1169731 6.88654329,12.2418161 L6.88654329,12.2418161 Z"></path>
                <path id="Shape" d="M6.06303957,11.4556502 C6.04359657,11.4331372 6.02517757,11.4096012 6.00675757,11.3860652 C6.02620057,11.4096012 6.04462057,11.4321142 6.06303957,11.4556502 L6.06303957,11.4556502 Z"></path>
                <path id="Shape" d="M6.47196502,11.8891084 C6.40442702,11.8205464 6.33688902,11.7519854 6.27037402,11.6834234 C6.33688902,11.7519854 6.40442702,11.8195234 6.47196502,11.8891084 L6.47196502,11.8891084 Z"></path>
                <path id="Shape" d="M7.41484978,12.5840791 C7.23868238,12.4530961 7.06160629,12.3231361 6.88543801,12.1911291 C7.06160629,12.3231361 7.2386815,12.4530961 7.41484978,12.5840791 L7.41484978,12.5840791 Z"></path>
                <path id="Shape" d="M5.57453492,10.5491385 L5.57555892,10.5491385 L5.57453492,10.5491385 L5.57453492,10.5491385 Z"></path>
                <path id="Shape" d="M7.19662576,12.465765 C7.01919114,12.321479 6.84368458,12.179239 6.66721399,12.034953 C6.84271961,12.179239 7.01919019,12.321478 7.19662576,12.465765 L7.19662576,12.465765 Z"></path>
                <path id="Shape" d="M10.7208644,12.4715036 C10.6850484,12.4888996 10.6482094,12.5052726 10.6123944,12.5236926 C10.6471864,12.5052726 10.6850484,12.4888996 10.7208644,12.4715036 L10.7208644,12.4715036 Z"></path>
                <path id="Shape" d="M10.7510836,12.4254548 L10.7510836,12.4254548 C10.7367576,12.4315948 10.7234546,12.4387578 10.7091276,12.4459208 C10.7234546,12.4387578 10.7367576,12.4326178 10.7510836,12.4254548 L10.7510836,12.4254548 Z"></path>
                <path id="Shape" d="M10.1745169,12.6940966 C10.1161889,12.7104696 10.0599069,12.7247956 10.0026019,12.7411686 C10.0588829,12.7247966 10.1161879,12.7094466 10.1745169,12.6940966 L10.1745169,12.6940966 Z"></path>
                <path id="Shape" d="M9.89840245,12.7327152 C9.91579845,12.7296452 9.93012445,12.7245292 9.94649745,12.7214592 C9.93012445,12.7245292 9.91375145,12.7286222 9.89840245,12.7327152 L9.89840245,12.7327152 L9.89840245,12.7327152 Z"></path>
                <path id="Shape" d="M5.33176069,10.1026116 C5.32357469,10.0698656 5.31334069,10.0381436 5.30515469,10.0033506 C5.31436469,10.0360966 5.32357369,10.0698656 5.33176069,10.1026116 L5.33176069,10.1026116 Z"></path>
                <path id="Shape" d="M5.56239614,10.6874133 C5.55114014,10.6618303 5.53988314,10.6372713 5.52760414,10.6127123 C5.53988314,10.6382943 5.55114014,10.6618303 5.56239614,10.6874133 L5.56239614,10.6874133 Z"></path>
                <path id="Shape" d="M5.41369454,10.7109823 L5.41369454,10.7109823 L5.41369454,10.7099583 L5.41369454,10.7109823 Z"></path>
                <path id="Shape" d="M13.1535276,9.69173675 C13.0276606,9.8689043 12.8905376,10.0447652 12.7575086,10.2211485 C12.8915616,10.0447652 13.0276606,9.86864307 13.1535276,9.69173675 L13.1535276,9.69173675 Z"></path>
                <path id="Shape" d="M13.0044242,9.21381402 C12.9501892,9.39077711 12.8877672,9.56700136 12.8181822,9.74322579 C12.8877672,9.56700136 12.9501892,9.39059245 13.0044242,9.21381402 L13.0044242,9.21381402 Z"></path>
                <path id="Shape" d="M13.1352449,9.60478763 C13.0185879,9.78175402 12.8968149,9.95797659 12.7729949,10.1341994 C12.8957909,9.95797683 13.0175649,9.78175402 13.1352449,9.60478763 L13.1352449,9.60478763 Z"></path>
                <path id="Shape" d="M13.2230809,9.40270632 C13.0920979,9.57966314 12.9508819,9.75618244 12.7984089,9.93211809 C12.9508819,9.75632828 13.0920979,9.57966314 13.2230809,9.40270632 L13.2230809,9.40270632 Z"></path>
                <path id="Shape" d="M12.9392313,9.11925505 C12.9085323,9.29607859 12.8706693,9.47254912 12.8235973,9.64866682 C12.8706693,9.47254912 12.9085323,9.29607859 12.9392313,9.11925505 L12.9392313,9.11925505 Z"></path>
                <path id="Shape" d="M13.1247658,9.30453729 C13.0306218,9.48161847 12.9252208,9.65793645 12.8095878,9.83394905 C12.9252218,9.65793645 13.0306218,9.48146586 13.1247658,9.30453729 L13.1247658,9.30453729 Z"></path>
                <path id="Shape" d="M12.7999473,8.53645596 C12.8398563,8.7125536 12.8736253,8.88921067 12.9104643,9.06586773 C12.8736253,8.88921067 12.8398563,8.71255415 12.7999473,8.53645596 L12.7999473,8.53645596 Z"></path>
                <path id="Shape" d="M12.8111262,8.64155794 C12.8571752,8.81742175 12.9022002,8.99401355 12.9441562,9.17096971 C12.9001542,8.99401391 12.8571752,8.81742175 12.8111262,8.64155794 L12.8111262,8.64155794 Z"></path>
                <path id="Shape" d="M12.7216541,8.10156678 L12.7216541,8.10156678 C12.7247241,8.11077678 12.7257471,8.11998678 12.7277941,8.12919578 C12.7257481,8.11998678 12.7247241,8.11179978 12.7216541,8.10156678 L12.7216541,8.10156678 Z"></path>
                <path id="Shape" d="M12.8841226,9 C12.8841226,9.17707207 12.8626336,9.35342236 12.8268176,9.52941176 C12.8616106,9.35354262 12.8841226,9.17707207 12.8841226,9 L12.8841226,9 Z"></path>
                <path id="Shape" d="M12.8251357,8.85996659 C12.8445787,9.03655189 12.8701607,9.21210449 12.8855107,9.38937836 C12.8701617,9.21244861 12.8445787,9.03689601 12.8251357,8.85996659 L12.8251357,8.85996659 Z"></path>
                <path id="Shape" d="M12.819536,8.74856752 C12.855352,8.92493086 12.894237,9.10097216 12.92596,9.27797929 C12.893215,9.10129389 12.856375,8.92493055 12.819536,8.74856752 L12.819536,8.74856752 Z"></path>
                <path id="Shape" d="M13.1243057,9.51465921 C13.0168587,9.69150292 12.9053177,9.86812262 12.7866147,10.044071 C12.9053187,9.86812262 13.0168587,9.69150292 13.1243057,9.51465921 L13.1243057,9.51465921 Z"></path>
                <path id="Shape" d="M12.9994712,10.0652959 C12.8930472,10.242419 12.7794602,10.4185634 12.6709902,10.5947077 C12.7794602,10.4180738 12.8920242,10.242419 12.9994712,10.0652959 L12.9994712,10.0652959 Z"></path>
                <path id="Shape" d="M13.1050883,9.90103821 C12.9751283,10.0773962 12.8472153,10.2544297 12.7131623,10.43045 C12.8472153,10.2544297 12.9751283,10.0773962 13.1050883,9.90103821 L13.1050883,9.90103821 Z"></path>
                <path id="Shape" d="M13.0952592,9.98351577 C12.9642762,10.1602282 12.8271532,10.3365779 12.6920762,10.5129275 C12.8281762,10.3365779 12.9642762,10.1605909 13.0952592,9.98351577 L13.0952592,9.98351577 Z"></path>
                <path id="Shape" d="M13.095083,9.81794528 C12.97331,9.99441576 12.858699,10.1712133 12.732833,10.347357 C12.857676,10.1712133 12.973309,9.99441608 13.095083,9.81794528 L13.095083,9.81794528 Z"></path>
                <path id="Shape" d="M12.7410197,10.206519 C12.7041807,10.318059 12.6693887,10.43267 12.6315257,10.545233 L12.6315257,10.545233 C12.6693877,10.433693 12.7041807,10.319083 12.7410197,10.206519 L12.7410197,10.206519 Z"></path>
                <path id="Shape" d="M12.6941069,7.99402392 C12.7094569,8.04825892 12.7237829,8.10351792 12.7381089,8.15877592 C12.7237829,8.10351792 12.7084329,8.04825892 12.6941069,7.99402392 L12.6941069,7.99402392 Z"></path>
                <path id="Shape" d="M12.4718626,7.38615953 C12.4780026,7.40048553 12.4851656,7.41481253 12.4923286,7.42913853 C12.4841426,7.41481153 12.4769796,7.40048553 12.4718626,7.38615953 L12.4718626,7.38615953 Z"></path>
                <path id="Shape" d="M12.7326845,8.14368429 C12.7296145,8.12935829 12.7244985,8.11503129 12.7214285,8.10070529 C12.7244985,8.11503229 12.7296145,8.12935829 12.7326845,8.14368429 L12.7326845,8.14368429 L12.7326845,8.14368429 Z"></path>
                <path id="Shape" d="M12.8022968,10.7043381 C12.6743838,10.8808089 12.5485168,11.0579847 12.4206038,11.2337499 C12.5485168,11.0579854 12.6743838,10.8808089 12.8022968,10.7043381 L12.8022968,10.7043381 Z"></path>
                <path id="Shape" d="M12.8766089,10.6081587 C12.7394859,10.7854532 12.6033859,10.9615118 12.4662629,11.1375705 C12.6044089,10.9621294 12.7405089,10.7860707 12.8766089,10.6081587 L12.8766089,10.6081587 Z"></path>
                <path id="Shape" d="M12.8259513,10.513046 C12.7215743,10.6892643 12.6161733,10.8654833 12.5107733,11.0424577 C12.6161733,10.8654826 12.7215733,10.6892643 12.8259513,10.513046 L12.8259513,10.513046 Z"></path>
                <path id="Shape" d="M12.2666635,11.0033622 L12.2717805,10.9961992 L12.2666635,11.0033622 L12.2666635,11.0033622 Z"></path>
                <path id="Shape" d="M12.6395476,10.2133084 L12.6395476,10.2133084 C12.6364776,10.2204714 12.6334076,10.2286584 12.6313616,10.2358214 C12.6334076,10.2286584 12.6375006,10.2214954 12.6395476,10.2133084 L12.6395476,10.2133084 Z"></path>
                <path id="Shape" d="M12.5858006,10.4175845 C12.5755676,10.4421435 12.5663576,10.4667035 12.5561246,10.4902395 C12.5673816,10.4667025 12.5755676,10.4431665 12.5858006,10.4175845 L12.5858006,10.4175845 Z"></path>
                <path id="Shape" d="M12.5062107,10.8058711 C12.4601617,10.8897821 12.4171827,10.9747171 12.3731807,11.0586281 C12.4171827,10.9747171 12.4601617,10.8897821 12.5062107,10.8058711 L12.5062107,10.8058711 Z"></path>
                <path id="Shape" d="M11.0454193,12.2961285 C11.0126733,12.3165945 10.9799273,12.3339905 10.9451353,12.3544565 C10.9789053,12.3350135 11.0116503,12.3165945 11.0454193,12.2961285 L11.0454193,12.2961285 Z"></path>
                <path id="Shape" d="M11.8951346,11.7255544 C11.8265726,11.7941164 11.7539186,11.8616544 11.6833106,11.9302154 C11.7549416,11.8616544 11.8265736,11.7941164 11.8951346,11.7255544 L11.8951346,11.7255544 Z"></path>
                <path id="Shape" d="M10.7099686,12.4364852 C10.7181546,12.4334152 10.7253186,12.4282992 10.7324816,12.4252292 C10.7253176,12.4282992 10.7181546,12.4313692 10.7099686,12.4364852 L10.7099686,12.4364852 L10.7099686,12.4364852 Z"></path>
                <path id="Shape" d="M11.2936431,12.1512954 C11.2527111,12.1789244 11.2117791,12.2086004 11.1708461,12.2362294 C11.2117781,12.2086014 11.2527101,12.1789254 11.2936431,12.1512954 L11.2936431,12.1512954 Z"></path>
                <path id="Shape" d="M12.6013623,11.1022652 C12.4632163,11.2781555 12.3281393,11.4557867 12.1910163,11.631677 C12.3281393,11.4566572 12.4632153,11.2781546 12.6013623,11.1022652 L12.6013623,11.1022652 Z"></path>
                <path id="Shape" d="M11.4647679,11.9919809 C11.4381619,12.0134699 11.4125789,12.0349599 11.3859729,12.0564489 C11.4125789,12.0349599 11.4381619,12.0144939 11.4647679,11.9919809 L11.4647679,11.9919809 Z"></path>
                <path id="Shape" d="M12.2786973,10.9963428 L12.2786973,10.9963428 C12.2735803,11.0024828 12.2705113,11.0096458 12.2664173,11.0157858 C12.2705113,11.0096458 12.2746043,11.0024828 12.2786973,10.9963428 L12.2786973,10.9963428 Z"></path>
                <path id="Shape" d="M12.4708297,11.3214533 C12.3244967,11.4979242 12.1812337,11.6743942 12.0349017,11.8508651 C12.1802107,11.6743942 12.3244967,11.4969697 12.4708297,11.3214533 L12.4708297,11.3214533 Z"></path>
                <path id="Shape" d="M11.8651673,11.9623625 C11.9920573,11.8180765 12.1199703,11.6748135 12.2468603,11.5295035 C12.1199703,11.6748135 11.9920573,11.8190995 11.8651673,11.9623625 L11.8651673,11.9623625 Z"></path>
                <path id="Shape" d="M6.8268771,5.91775374 C6.8606461,5.89421774 6.8944151,5.87068174 6.9281841,5.84714574 C6.8944151,5.86965874 6.8606461,5.89421774 6.8268771,5.91775374 L6.8268771,5.91775374 Z"></path>
                <path id="Shape" d="M7.05303916,5.74787091 C7.07759816,5.73252091 7.10318116,5.71819491 7.12978716,5.70284591 C7.10420516,5.71819491 7.07862216,5.73252091 7.05303916,5.74787091 L7.05303916,5.74787091 Z"></path>
                <path id="Shape" d="M6.12714079,6.89162953 C6.25403079,6.74734353 6.38194379,6.60510353 6.50883379,6.46184053 C6.38091979,6.60510353 6.25300679,6.74734353 6.12714079,6.89162953 L6.12714079,6.89162953 Z"></path>
                <path id="Shape" d="M6.6125708,6.06002086 C6.6340598,6.04262486 6.6555498,6.02420486 6.6780628,6.00680886 C6.6555498,6.02420486 6.6340598,6.04262386 6.6125708,6.06002086 L6.6125708,6.06002086 Z"></path>
                <path id="Shape" d="M5.95633981,7.19653345 C6.10164881,7.02006286 6.24695881,6.84359227 6.39226781,6.66712169 C6.24695881,6.84359227 6.10062581,7.02006286 5.95633981,7.19653345 L5.95633981,7.19653345 Z"></path>
                <path id="Shape" d="M7.29600733,5.57456568 L7.28986733,5.57763568 L7.29600733,5.57456568 L7.29600733,5.57456568 Z"></path>
                <path id="Shape" d="M5.80084058,7.41473699 C5.93591658,7.23885544 6.06894658,7.06120677 6.20504658,6.88532522 C6.06894658,7.06120591 5.93489358,7.23885544 5.80084058,7.41473699 L5.80084058,7.41473699 Z"></path>
                <path id="Shape" d="M6.3124025,6.47600773 C6.3819875,6.40744573 6.4525955,6.33990773 6.5221805,6.27032273 C6.4525955,6.33990773 6.3819875,6.40744573 6.3124025,6.47600773 L6.3124025,6.47600773 Z"></path>
                <path id="Shape" d="M5.52563501,7.90400268 C5.65559501,7.72774589 5.78760101,7.55084772 5.92063101,7.37459092 C5.78760201,7.55020698 5.65559501,7.72710452 5.52563501,7.90400268 L5.52563501,7.90400268 Z"></path>
                <path id="Shape" d="M5.44334206,7.58716329 C5.44334206,7.58614029 5.44436506,7.58409329 5.44538906,7.58204629 C5.44538806,7.58307029 5.44436506,7.58511729 5.44334206,7.58716329 L5.44334206,7.58716329 Z"></path>
                <path id="Shape" d="M5.57192993,7.8099155 C5.69370293,7.63344515 5.81445393,7.45623901 5.93724993,7.28050374 C5.81445393,7.45623901 5.69370393,7.63344443 5.57192993,7.8099155 L5.57192993,7.8099155 Z"></path>
                <path id="Shape" d="M5.36843331,7.79174606 L5.36843331,7.79174606 L5.37047931,7.78663006 L5.36843331,7.79174606 Z"></path>
                <path id="Shape" d="M5.48297066,8.00241786 C5.58223166,7.82568384 5.68353866,7.64973935 5.78279966,7.4730061 C5.68456266,7.64973935 5.58325466,7.82568384 5.48297066,8.00241786 L5.48297066,8.00241786 Z"></path>
                <path id="Shape" d="M5.62448093,7.39800116 C5.66234293,7.32841616 5.69713593,7.25883116 5.73499793,7.18924716 C5.69713593,7.25883116 5.66234293,7.32943916 5.62448093,7.39800116 L5.62448093,7.39800116 Z"></path>
                <path id="Shape" d="M9.60463379,5.21973369 C9.78126873,5.33639069 9.95790342,5.45918769 10.1340456,5.58403069 C9.95790366,5.45918769 9.78126873,5.33639069 9.60463379,5.21973369 L9.60463379,5.21973369 Z"></path>
                <path id="Shape" d="M8.99998974,5.17204397 C9.17706181,5.17204397 9.3534121,5.19353297 9.5294015,5.22934897 C9.35329184,5.19353397 9.17706181,5.17204397 8.99998974,5.17204397 L8.99998974,5.17204397 Z"></path>
                <path id="Shape" d="M9.40255248,5.19306847 C9.57955639,5.32302847 9.75597842,5.46526747 9.93196425,5.61978747 C9.75597842,5.46526847 9.57955625,5.32302847 9.40255248,5.19306847 L9.40255248,5.19306847 Z"></path>
                <path id="Shape" d="M8.8599153,5.23401889 C9.03661489,5.21457589 9.21228347,5.18899389 9.38932707,5.17364389 C9.21228347,5.18899389 9.03627122,5.21457589 8.8599153,5.23401889 L8.8599153,5.23401889 Z"></path>
                <path id="Shape" d="M9.30450652,5.18406384 C9.48148484,5.27820784 9.65770156,5.38565484 9.83391829,5.50026584 C9.65770156,5.38463184 9.48148484,5.27820784 9.30450652,5.18406384 L9.30450652,5.18406384 Z"></path>
                <path id="Shape" d="M9.69164445,5.23450213 C9.86872526,5.36139213 10.0450216,5.49749213 10.2210562,5.63154513 C10.0447601,5.49749113 9.86846377,5.36139213 9.69164445,5.23450213 L9.69164445,5.23450213 Z"></path>
                <path id="Shape" d="M9.2138653,5.17807441 C9.39052081,5.23128641 9.5671765,5.29473141 9.74327706,5.36329241 C9.5671765,5.29473141 9.39052081,5.23231041 9.2138653,5.17807441 L9.2138653,5.17807441 Z"></path>
                <path id="Shape" d="M9.11924481,5.17407464 C9.2960098,5.20477364 9.47242137,5.24263664 9.64865657,5.29073164 C9.47242137,5.24263564 9.29600962,5.20477364 9.11924481,5.17407464 L9.11924481,5.17407464 Z"></path>
                <path id="Shape" d="M9.51434128,5.20654466 C9.6911811,5.31603866 9.86757784,5.42860166 10.043753,5.54832866 C9.86779938,5.42860266 9.6911811,5.31603866 9.51434128,5.20654466 L9.51434128,5.20654466 Z"></path>
                <path id="Shape" d="M10.0657985,5.32255887 C10.2428494,5.41260987 10.4187397,5.50777687 10.5952102,5.59987487 C10.4187397,5.50777787 10.2422691,5.41260987 10.0657985,5.32255887 L10.0657985,5.32255887 Z"></path>
                <path id="Shape" d="M8.53630212,5.31037068 C8.71222447,5.27046168 8.889791,5.23464568 9.06571388,5.19780668 C8.88924365,5.23566868 8.71222501,5.27046168 8.53630212,5.31037068 L8.53630212,5.31037068 Z"></path>
                <path id="Shape" d="M9.98393627,5.29991395 C10.1609109,5.42680395 10.3371295,5.55676395 10.513348,5.68774695 C10.3367511,5.55676395 10.1605329,5.42680395 9.98393627,5.29991395 L9.98393627,5.29991395 Z"></path>
                <path id="Shape" d="M8.64148616,5.31924757 C8.81783583,5.27217557 8.99454826,5.22919657 9.17089793,5.18621757 C8.99454826,5.22817257 8.81783548,5.27217557 8.64148616,5.31924757 L8.64148616,5.31924757 Z"></path>
                <path id="Shape" d="M9.81896061,5.26014174 C9.99565691,5.37577574 10.1726916,5.48833874 10.3483724,5.60908874 C10.1726916,5.48731574 9.99565691,5.37679874 9.81896061,5.26014174 L9.81896061,5.26014174 Z"></path>
                <path id="Shape" d="M8.74843418,5.28576756 C8.9251182,5.24892856 9.10116193,5.21004256 9.27784595,5.17832056 C9.10116225,5.21004356 8.9251182,5.24892856 8.74843418,5.28576756 L8.74843418,5.28576756 Z"></path>
                <path id="Shape" d="M9.9013151,5.27903302 C10.0782438,5.40694602 10.2548288,5.53281302 10.4307269,5.66379602 C10.2551726,5.53281302 10.0782438,5.40694702 9.9013151,5.27903302 L9.9013151,5.27903302 Z"></path>
                <path id="Shape" d="M5.21972345,8.88062652 C5.33638045,8.70366375 5.45917745,8.52719308 5.58504345,8.35121476 C5.45917645,8.52743913 5.33638045,8.70366351 5.21972345,8.88062652 L5.21972345,8.88062652 Z"></path>
                <path id="Shape" d="M5.18405358,9.15330912 C5.27819758,8.97628239 5.38564458,8.7998624 5.50230158,8.62389736 C5.38564458,8.7998624 5.27922158,8.97628239 5.18405358,9.15330912 L5.18405358,9.15330912 Z"></path>
                <path id="Shape" d="M5.23449186,8.79570807 C5.36240486,8.61846355 5.50055186,8.44250889 5.63665086,8.26629631 C5.50055186,8.44276681 5.36240486,8.61872147 5.23449186,8.79570807 L5.23449186,8.79570807 Z"></path>
                <path id="Shape" d="M5.20655492,8.96616033 C5.31502492,8.78939248 5.42758892,8.61262462 5.54629292,8.43674857 C5.42758892,8.61262462 5.31502492,8.78939248 5.20655492,8.96616033 L5.20655492,8.96616033 Z"></path>
                <path id="Shape" d="M5.1930172,9.05222744 C5.3240002,8.87517786 5.4662402,8.69885204 5.6207592,8.52281567 C5.4652162,8.69870732 5.3240002,8.87517786 5.1930172,9.05222744 L5.1930172,9.05222744 Z"></path>
                <path id="Shape" d="M5.17806417,9.25683171 C5.23127617,9.07986804 5.29472117,8.90364399 5.36328217,8.72741995 C5.29472117,8.90364399 5.23127617,9.07986804 5.17806417,9.25683171 L5.17806417,9.25683171 Z"></path>
                <path id="Shape" d="M5.1720132,9.43913974 C5.1720132,9.26206767 5.1935022,9.08571738 5.2293182,8.90972798 C5.1945262,9.08571738 5.1720132,9.26206767 5.1720132,9.43913974 L5.1720132,9.43913974 Z"></path>
                <path id="Shape" d="M5.31923731,9.85796825 C5.27216531,9.68161845 5.22918631,9.50490629 5.18620731,9.32855649 C5.22816331,9.50490664 5.27216531,9.68125644 5.31923731,9.85796825 L5.31923731,9.85796825 Z"></path>
                <path id="Shape" d="M5.31036042,9.97328509 C5.27045142,9.79718031 5.23565942,9.6199781 5.19779642,9.44387333 C5.23565942,9.61997757 5.26942842,9.79663133 5.31036042,9.97328509 L5.31036042,9.97328509 Z"></path>
                <path id="Shape" d="M5.23400864,9.63789819 C5.21456564,9.4610837 5.18898364,9.2853009 5.17363364,9.10848642 C5.18898264,9.2853009 5.21456564,9.4614276 5.23400864,9.63789819 L5.23400864,9.63789819 Z"></path>
                <path id="Shape" d="M5.28573679,9.74704097 C5.24992079,9.57057027 5.21001179,9.39442007 5.17828979,9.2176292 C5.21103579,9.39442007 5.24889779,9.57089076 5.28573679,9.74704097 L5.28573679,9.74704097 Z"></path>
                <path id="Shape" d="M5.17404388,9.34866262 C5.20474288,9.17189763 5.24260588,8.99548606 5.29070088,8.81925086 C5.24260488,8.99530935 5.20576588,9.17189763 5.17404388,9.34866262 L5.17404388,9.34866262 Z"></path>
                <path id="Shape" d="M5.29984217,8.51627709 C5.42980217,8.33943808 5.56283217,8.16296737 5.69688517,7.98686533 C5.56283117,8.16296737 5.42980117,8.33943808 5.29984217,8.51627709 L5.29984217,8.51627709 Z"></path>
                <path id="Shape" d="M5.27892021,8.59625224 C5.40785721,8.41966946 5.53679321,8.24274947 5.67084621,8.06684047 C5.53781721,8.24274947 5.40888021,8.41966913 5.27892021,8.59625224 L5.27892021,8.59625224 Z"></path>
                <path id="Shape" d="M5.39250004,7.78673261 C5.38431404,7.81231561 5.37612704,7.83892161 5.36794104,7.86450361 C5.37612704,7.83892161 5.38431304,7.81333861 5.39250004,7.78673261 L5.39250004,7.78673261 L5.39250004,7.78673261 Z"></path>
                <path id="Shape" d="M5.32244606,8.4430298 C5.42375306,8.26604034 5.53017706,8.0906075 5.63250806,7.91361804 C5.52915406,8.0906075 5.42273006,8.26552096 5.32244606,8.4430298 L5.32244606,8.4430298 Z"></path>
                <path id="Shape" d="M5.25974178,8.67815546 C5.38253878,8.50157856 5.50021878,8.32468302 5.62915578,8.1487437 C5.50124178,8.32468302 5.38253878,8.50189751 5.25974178,8.67815546 L5.25974178,8.67815546 Z"></path>
                <path d="M8.99998974,2.18110913 C5.2340201,2.18110913 2.18107834,5.23403036 2.18107834,9 C2.18107834,12.7659696 5.23402008,15.8188909 8.99998974,15.8188909 C12.7659799,15.8188909 15.8188806,12.7659696 15.8188806,9 C15.8188806,5.23403036 12.7659594,2.18110913 8.99998974,2.18110913 L8.99998974,2.18110913 Z M8.99998974,12.8279765 C6.88586875,12.8279765 5.1720132,11.114121 5.1720132,9 C5.1720132,6.8858175 6.88584824,5.17202347 8.99998974,5.17202347 C11.1141312,5.17202347 12.8279663,6.88581748 12.8279663,9 C12.8279663,11.114121 11.1141107,12.8279765 8.99998974,12.8279765 L8.99998974,12.8279765 Z" id="Shape"></path>
            </g>
        </g>
    </g>
</svg>