<?xml version="1.0" encoding="UTF-8" standalone="no"?>
<svg width="40px" height="40px" viewBox="0 0 40 40" version="1.1" xmlns="http://www.w3.org/2000/svg" xmlns:xlink="http://www.w3.org/1999/xlink" xmlns:sketch="http://www.bohemiancoding.com/sketch/ns">
    <!-- Generator: Sketch 3.2.2 (9983) - http://www.bohemiancoding.com/sketch -->
    <title>Slice 1</title>
    <desc>Created with Sketch.</desc>
    <defs></defs>
    <g id="Page-1" stroke="none" stroke-width="1" fill="none" fill-rule="evenodd" sketch:type="MSPage">
        <circle id="Oval-1" fill="#8B572A" fill-opacity="0.3" cx="20" cy="20" r="20"></circle>
        <rect id="Sec-Group" fill="#8B572A" x="4" y="4" width="32" height="32" rx="29"></rect>
        <g id="Security-Group" transform="translate(12.000000, 10.000000)" fill="#FFFFFF">
            <path d="M9,12 L7,12 L7,15 L9,15 L9,12 L9,12 Z M14,17.031 L2,17.031 L2,10.031 L14,10.031 L14,17.031 L14,17.031 Z M6.00285878,3.99791312 C6.00285878,2.89449617 6.89109599,2 8.0040023,2 C9.1092033,2 10.0051458,2.89826062 10.0051458,3.99791312 L10.0051458,8 L6.00285878,8 L6.00285878,3.99791312 L6.00285878,3.99791312 Z M11.995996,7.72245966 L11.995996,3.89670263 C11.995996,1.76541191 10.2008675,0.031 7.991992,0.031 C5.78445112,0.031 3.98798799,1.76541191 3.98798799,3.89670263 L3.98798799,7.72245966 L2.65331999,7.72245966 C1.18118118,7.72245966 0,8.87701618 0,10.2995947 L0,16.4538649 C0,17.8764435 1.18118118,19.031 2.65331999,19.031 L13.330664,19.031 C14.8028028,19.031 16,17.8764435 16,16.4538649 L16,10.2995947 C16,8.87701618 14.8028028,7.72245966 13.330664,7.72245966 L11.995996,7.72245966 L11.995996,7.72245966 Z" id="Fill-138-Copy-2"></path>
        </g>
    </g>
</svg>