<?xml version="1.0" encoding="UTF-8" standalone="no"?>
<svg width="40px" height="45px" viewBox="0 0 40 45" version="1.1" xmlns="http://www.w3.org/2000/svg" xmlns:xlink="http://www.w3.org/1999/xlink" xmlns:sketch="http://www.bohemiancoding.com/sketch/ns">
    <!-- Generator: Sketch 3.2.2 (9983) - http://www.bohemiancoding.com/sketch -->
    <title>Slice 1</title>
    <desc>Created with Sketch.</desc>
    <defs></defs>
    <g id="Page-1" stroke="none" stroke-width="1" fill="none" fill-rule="evenodd" sketch:type="MSPage">
        <path d="M19.9,0 L39.4,11.25 L39.4,33.75 L19.9,45 L0.399999976,33.75 L0.399999976,11.25 L19.9,0 L19.9,0 Z" id="Subnet-2" fill="#CEAE71" fill-opacity="0.3"></path>
        <path d="M20,4 L35.5884573,13 L35.5884573,31 L20,40 L4.41154273,31 L4.41154273,13 L20,4 L20,4 Z" id="Subnet" fill="#CEAE71"></path>
        <path d="M20.988,27 L18.988,27 L18.988,29 L20.988,29 L20.988,27 L20.988,27 Z M23.988,30 L15.988,30 L15.988,26 L23.988,26 L23.988,30 L23.988,30 Z M18.988,21.031 C18.988,20.481 19.436,20.031 19.988,20.031 C20.54,20.031 20.988,20.481 20.988,21.031 L20.988,24 L18.988,24 L18.988,21.031 L18.988,21.031 Z M23.988,24 L22.988,24 L22.988,21.031 C22.988,19.377 21.643,18.031 19.988,18.031 C18.334,18.031 16.988,19.377 16.988,21.031 L16.988,24 L15.988,24 C14.885,24 14,24.896 14,26 L14,30 C14,31.104 14.885,32 15.988,32 L23.988,32 C25.091,32 25.988,31.104 25.988,30 L25.988,26 C25.988,24.896 25.091,24 23.988,24 L23.988,24 L23.988,24 Z M27.999,18.111 C28,18.074 28,18.037 28,18 C28,13.589 24.411,10 20,10 C15.589,10 12,13.589 12,18 C12,18.033 12,18.066 12.001,18.1 C11.046,18.294 10.172,18.765 9.477,19.469 C8.523,20.408 8,21.662 8,23 C8,25.414 9.709,27.434 11.988,27.898 L11.988,25.815 C10.826,25.401 10,24.302 10,23 C10,22.201 10.313,21.453 10.891,20.883 C11.453,20.313 12.201,20 13.08,20 L14.287,20 L14.062,18.815 C14.02,18.592 14,18.325 14,18 C14,14.691 16.691,12 20,12 C23.309,12 26,14.691 26,18 C26,18.325 25.979,18.592 25.937,18.815 L25.793,20 L27,20 C28.654,20 30,21.346 30,23 C30,24.302 29.162,25.401 28,25.816 L28,27.898 C30.279,27.434 32,25.414 32,23 C32,20.604 30.306,18.596 27.999,18.111 L27.999,18.111 L27.999,18.111 Z" id="Subnet" fill="#FFFFFF"></path>
    </g>
</svg>