<?xml version="1.0" encoding="utf-8"?>
<!-- Generator: Adobe Illustrator 17.0.0, SVG Export Plug-In . SVG Version: 6.00 Build 0)  -->
<!DOCTYPE svg PUBLIC "-//W3C//DTD SVG 1.1//EN" "http://www.w3.org/Graphics/SVG/1.1/DTD/svg11.dtd">
<svg version="1.1" id="Layer_1" xmlns="http://www.w3.org/2000/svg" xmlns:xlink="http://www.w3.org/1999/xlink" x="0px" y="0px"
	 width="24px" height="24px" viewBox="0 0 24 24" enable-background="new 0 0 24 24" xml:space="preserve">
<circle fill="none" stroke="#333333" stroke-width="1.0781" stroke-miterlimit="10" cx="10.016" cy="6.469" r="5.787"/>
<path fill="none" stroke="#333333" stroke-width="1.0781" stroke-miterlimit="10" d="M16.862,15.134
	c-1.731-1.792-4.158-2.906-6.846-2.906"/>
<path fill="none" stroke="#333333" stroke-width="1.0781" stroke-miterlimit="10" d="M10.016,12.228
	c-5.256,0-9.516,4.261-9.516,9.516"/>
<path fill="none" stroke="#333333" stroke-width="1.0781" stroke-miterlimit="10" d="M23.499,18.018c0-0.216-0.168-0.395-0.383-0.41
	l-0.69-0.047c-0.135-0.11-0.233-0.189-0.368-0.299c-0.063-0.195-0.142-0.384-0.236-0.566c0.017-0.173,0.029-0.299,0.046-0.472
	l0.454-0.524c0.141-0.163,0.132-0.408-0.021-0.561l-0.506-0.504c-0.153-0.153-0.398-0.161-0.561-0.019l-0.524,0.456
	c-0.132,0.115-0.319,0.128-0.474,0.047c-0.089-0.047-0.18-0.09-0.275-0.129c-0.094-0.039-0.19-0.073-0.285-0.102
	c-0.167-0.052-0.291-0.193-0.303-0.368l-0.05-0.692c-0.016-0.215-0.195-0.382-0.411-0.382l-0.714,0.001
	c-0.216,0-0.395,0.167-0.41,0.383l-0.068,0.98c-0.001,0-0.002,0.001-0.002,0.001c-0.294,0.07-0.578,0.175-0.846,0.313
	c-0.173-0.017-0.298-0.03-0.472-0.047l-0.522-0.452c-0.163-0.141-0.408-0.133-0.561,0.021l-0.504,0.505
	c-0.153,0.153-0.161,0.398-0.019,0.561l0.449,0.516c0.111,0.128,0.133,0.311,0.053,0.461c-0.052,0.097-0.1,0.197-0.143,0.301
	c-0.039,0.093-0.072,0.188-0.101,0.282c-0.052,0.167-0.193,0.291-0.368,0.303l-0.678,0.048c-0.216,0.015-0.383,0.195-0.382,0.411
	l0.001,0.714c0,0.216,0.168,0.395,0.383,0.41l0.963,0.066c0,0,0.001,0.002,0.002,0.002c0.07,0.299,0.176,0.588,0.317,0.859
	c-0.017,0.173-0.03,0.299-0.047,0.472l-0.442,0.509c-0.142,0.163-0.133,0.408,0.02,0.561l0.505,0.504
	c0.153,0.153,0.398,0.161,0.561,0.019l0.505-0.44c0.132-0.115,0.32-0.128,0.475-0.046c0.091,0.048,0.185,0.093,0.283,0.133
	c0.098,0.04,0.197,0.075,0.296,0.105c0.168,0.051,0.292,0.193,0.304,0.368l0.048,0.669c0.016,0.215,0.195,0.382,0.411,0.382
	l0.713-0.001c0.216,0,0.395-0.168,0.41-0.384l0.066-0.961c0.001,0,0.002-0.001,0.002-0.001c0.393-0.094,0.767-0.25,1.109-0.464
	c0.001,0,0.002,0,0.002,0l0.732,0.634c0.163,0.141,0.408,0.132,0.561-0.021l0.504-0.505c0.153-0.153,0.161-0.398,0.019-0.561
	l-0.448-0.513c-0.115-0.132-0.129-0.319-0.047-0.474c0.046-0.088,0.089-0.178,0.127-0.271c0.043-0.104,0.079-0.208,0.111-0.313
	c0.049-0.163,0.193-0.277,0.362-0.29l0.684-0.05c0.215-0.016,0.382-0.195,0.382-0.411L23.499,18.018z M18.564,20.439
	c-1.136,0-2.057-0.921-2.057-2.057c0-1.136,0.921-2.057,2.057-2.057c1.136,0,2.057,0.921,2.057,2.057
	C20.621,19.518,19.7,20.439,18.564,20.439z"/>
</svg>
