<?xml version="1.0" encoding="UTF-8" standalone="no"?>
<svg width="40px" height="40px" viewBox="0 0 40 40" version="1.1" xmlns="http://www.w3.org/2000/svg" xmlns:xlink="http://www.w3.org/1999/xlink" xmlns:sketch="http://www.bohemiancoding.com/sketch/ns">
    <!-- Generator: Sketch 3.2.2 (9983) - http://www.bohemiancoding.com/sketch -->
    <title>vol-hover</title>
    <desc>Created with Sketch.</desc>
    <defs></defs>
    <g id="Page-1" stroke="none" stroke-width="1" fill="none" fill-rule="evenodd" sketch:type="MSPage">
        <rect id="Volume" fill="#B43030" x="4" y="4" width="32" height="32" rx="4"></rect>
        <path d="M14,30 L14,28 L19,28 L19,26 L14,26 L14,10 L26,10 L26,26 L21,26 L21,28 L26,28 L26,30 L14,30 L14,30 Z M26,8 L14,8 C12.897,8 12,8.897 12,10 L12,30 C12,31.103 12.897,32 14,32 L26,32 C27.102,32 28,31.103 28,30 L28,10 C28,8.897 27.102,8 26,8 L26,8 L26,8 Z" id="EBS-Volume" fill="#FFFFFF" transform="translate(20.000000, 20.000000) rotate(180.000000) translate(-20.000000, -20.000000) "></path>
    </g>
</svg>