<?xml version="1.0" encoding="UTF-8" standalone="no"?>
<svg width="40px" height="40px" viewBox="0 0 40 40" version="1.1" xmlns="http://www.w3.org/2000/svg" xmlns:xlink="http://www.w3.org/1999/xlink" xmlns:sketch="http://www.bohemiancoding.com/sketch/ns">
    <!-- Generator: Sketch 3.2.2 (9983) - http://www.bohemiancoding.com/sketch -->
    <title>Slice 1</title>
    <desc>Created with Sketch.</desc>
    <defs></defs>
    <g id="Page-1" stroke="none" stroke-width="1" fill="none" fill-rule="evenodd" sketch:type="MSPage">
        <rect id="Rectangle-2" fill="#CEAE71" fill-opacity="0.3" x="0" y="0" width="40" height="40" rx="8"></rect>
        <rect id="VPC" fill="#CEAE71" x="4" y="4" width="32" height="32" rx="2"></rect>
        <path d="M29,30 L21,30 L21,28 C21,27.447 20.553,27 20,27 C19.447,27 19,27.447 19,28 L19,30 L11.002,30 C10.449,30 10.002,30.447 10.002,31 C10.002,31.553 10.449,32 11.002,32 L29,32 C29.553,32 30,31.553 30,31 C30,30.447 29.553,30 29,30 M27,24 L13,24 C11.346,24 10,22.654 10,21 C10,20.201 10.314,19.453 10.891,18.883 C11.453,18.313 12.201,18 13.08,18 L14.287,18 L14.062,16.815 C14.021,16.592 14,16.325 14,16 C14,12.691 16.691,10 20,10 C23.309,10 26,12.691 26,16 C26,16.325 25.98,16.592 25.937,16.815 L25.793,18 L27,18 C28.654,18 30,19.346 30,21 C30,22.654 28.654,24 27,24 M27.999,16.111 C28,16.074 28,16.037 28,16 C28,11.589 24.411,8 20,8 C15.589,8 12,11.589 12,16 C12,16.033 12,16.066 12.001,16.1 C11.046,16.294 10.172,16.765 9.478,17.469 C8.523,18.408 8,19.662 8,21 C8,23.757 10.243,26 13,26 L27,26 C29.757,26 32,23.757 32,21 C32,18.604 30.306,16.596 27.999,16.111" id="VPC" fill="#FFFFFF"></path>
    </g>
</svg>