<?xml version="1.0" encoding="UTF-8" standalone="no"?>
<svg width="16px" height="16px" viewBox="0 0 16 16" version="1.1" xmlns="http://www.w3.org/2000/svg" xmlns:xlink="http://www.w3.org/1999/xlink" xmlns:sketch="http://www.bohemiancoding.com/sketch/ns">
    <!-- Generator: Sketch 3.3.2 (12043) - http://www.bohemiancoding.com/sketch -->
    <title>Icon/Minus</title>
    <desc>Created with Sketch.</desc>
    <defs></defs>
    <g id="Visual-Designs" stroke="none" stroke-width="1" fill="none" fill-rule="evenodd" sketch:type="MSPage">
        <g id="5.0-Topology" sketch:type="MSArtboardGroup" transform="translate(-1043.000000, -127.000000)" fill="#999999">
            <g id="Toolbar" sketch:type="MSLayerGroup" transform="translate(223.000000, 117.000000)">
                <g id="Icon/Minus-+-Icon/Plus" transform="translate(794.000000, 10.000000)" sketch:type="MSShapeGroup">
                    <path d="M34,14.6666667 C30.324,14.6666667 27.3333333,11.676 27.3333333,8 C27.3333333,4.324 30.324,1.33333333 34,1.33333333 C37.676,1.33333333 40.6666667,4.324 40.6666667,8 C40.6666667,11.676 37.676,14.6666667 34,14.6666667 M34,0 C29.5886667,0 26,3.58866667 26,8 C26,12.4113333 29.5886667,16 34,16 C38.4113333,16 42,12.4113333 42,8 C42,3.58866667 38.4113333,0 34,0 M37.3333333,7.33333333 L30.6666667,7.33333333 C30.3,7.33333333 30,7.63333333 30,8 C30,8.36666667 30.3,8.66666667 30.6666667,8.66666667 L37.3333333,8.66666667 C37.7,8.66666667 38,8.36666667 38,8 C38,7.63333333 37.7,7.33333333 37.3333333,7.33333333" id="Icon/Minus"></path>
                </g>
            </g>
        </g>
    </g>
</svg>