<?xml version="1.0" encoding="UTF-8" standalone="no"?>
<svg width="16px" height="16px" viewBox="0 0 15 15" version="1.1" xmlns="http://www.w3.org/2000/svg" xmlns:xlink="http://www.w3.org/1999/xlink">
    <!-- Generator: Sketch 3.6.1 (26313) - http://www.bohemiancoding.com/sketch -->
    <title>calendar</title>
    <desc>Created with Sketch.</desc>
    <defs></defs>
    <g id="Page-1" stroke="none" stroke-width="1" fill="none" fill-rule="evenodd">
        <g id="material" transform="translate(-190.000000, -183.000000)" fill="#272636">
            <g id="calendar" transform="translate(190.000000, 183.000000)">
                <path d="M13.5942857,15 L1.40571429,15 C0.63,15 0,14.37 0,13.5942857 L0,2.8125 C0,2.03571429 0.63,1.40571429 1.40571429,1.40571429 L3.28071429,1.40571429 L3.28071429,2.34321429 L0.9375,2.34321429 L0.9375,14.0625 L14.0625,14.0625 L14.0625,2.34428571 L11.7182143,2.34428571 L11.7182143,1.40571429 L13.5932143,1.40571429 C14.37,1.40571429 15,2.03571429 15,2.8125 L15,13.5932143 C15,14.37 14.37,15 13.5942857,15 L13.5942857,15 Z M9.84428571,5.625 L11.7192857,5.625 L11.7192857,7.03071429 L9.84428571,7.03071429 L9.84428571,5.625 L9.84428571,5.625 Z M11.7192857,11.7192857 L9.84428571,11.7192857 L9.84428571,10.3135714 L11.7192857,10.3135714 L11.7192857,11.7192857 L11.7192857,11.7192857 Z M9.84428571,7.96928571 L11.7192857,7.96928571 L11.7192857,9.375 L9.84428571,9.375 L9.84428571,7.96928571 L9.84428571,7.96928571 Z M10.5471429,3.75 C10.1592857,3.75 9.84428571,3.435 9.84428571,3.04714286 L9.84428571,0.702857143 C9.84428571,0.315 10.1582143,0 10.5471429,0 C10.9360714,0 11.25,0.315 11.25,0.702857143 L11.25,3.04714286 C11.25,3.435 10.935,3.75 10.5471429,3.75 L10.5471429,3.75 Z M6.5625,5.625 L8.4375,5.625 L8.4375,7.03071429 L6.5625,7.03071429 L6.5625,5.625 L6.5625,5.625 Z M8.4375,11.7192857 L6.5625,11.7192857 L6.5625,10.3135714 L8.4375,10.3135714 L8.4375,11.7192857 L8.4375,11.7192857 Z M6.5625,7.96928571 L8.4375,7.96928571 L8.4375,9.375 L6.5625,9.375 L6.5625,7.96928571 L6.5625,7.96928571 Z M5.625,1.40571429 L9.375,1.40571429 L9.375,2.34321429 L5.625,2.34321429 L5.625,1.40571429 L5.625,1.40571429 Z M3.28071429,10.3125 L5.15571429,10.3125 L5.15571429,11.7182143 L3.28071429,11.7182143 L3.28071429,10.3125 L3.28071429,10.3125 Z M3.28071429,7.96928571 L5.15571429,7.96928571 L5.15571429,9.375 L3.28071429,9.375 L3.28071429,7.96928571 L3.28071429,7.96928571 Z M3.28071429,5.625 L5.15571429,5.625 L5.15571429,7.03071429 L3.28071429,7.03071429 L3.28071429,5.625 L3.28071429,5.625 Z M4.45285714,3.75 C4.065,3.75 3.75,3.435 3.75,3.04714286 L3.75,0.702857143 C3.75,0.315 4.065,0 4.45285714,0 C4.84071429,0 5.15571429,0.315 5.15571429,0.702857143 L5.15571429,3.04714286 C5.15571429,3.435 4.84178571,3.75 4.45285714,3.75 L4.45285714,3.75 Z" id="Shape"></path>
            </g>
        </g>
    </g>
</svg>