<?xml version="1.0" encoding="iso-8859-1"?>
<!-- Generator: Adobe Illustrator 19.0.0, SVG Export Plug-In . SVG Version: 6.00 Build 0)  -->
<svg version="1.1" id="Capa_1" xmlns="http://www.w3.org/2000/svg" xmlns:xlink="http://www.w3.org/1999/xlink" x="0px" y="0px"
	 viewBox="0 0 54 54" width="54px" height="54px"  xml:space="preserve">
<g>
	<g>
	<rect id="Network" fill="#59B4D9"  x="12.2132034" y="12.2132034" width="30" height="30" rx="4" style="stroke: rgb(0, 127, 255); paint-order: fill; stroke-opacity: 1; stroke-width: 3;"></rect>
		<path d="M30.0057176,22 L28.004574,22 L28.004574,26 L30.0057176,26 L30.0057176,22 L30.0057176,22 Z M26.0034305,22 L24.002287,22 L24.002287,26 L26.0034305,26 L26.0034305,22 L26.0034305,22 Z M32.0068611,29 L29.0051458,29 L29.0051458,31 L24.9988565,31 L24.9988565,29 L22.0011435,29 L22.0011435,22 L20,22 L20,31 L23.0017153,31 L23.0017153,33 L31.002287,33 L31.002287,31 L34,31 L34,22 L32.0068611,22 L32.0068611,29 L32.0068611,29 Z" id="Network-Interface" fill="#FFFFFF"></path>
	</g>
</g>
</svg>
