<?xml version="1.0" encoding="UTF-8" standalone="no"?>
<svg width="40px" height="40px" viewBox="0 0 40 40" version="1.1" xmlns="http://www.w3.org/2000/svg" xmlns:xlink="http://www.w3.org/1999/xlink">
    <!-- Generator: Sketch 3.6.1 (26313) - http://www.bohemiancoding.com/sketch -->
    <title>unexpand</title>
    <desc>Created with Sketch.</desc>
    <defs></defs>
    <g id="Page-1" stroke="none" stroke-width="1" fill="none" fill-rule="evenodd">
        <g id="material" transform="translate(-37.000000, -174.000000)">
            <g id="unexpand" transform="translate(37.000000, 174.000000)">
                <circle id="Oval-6" fill="#9B9B9B" cx="20" cy="20" r="20"></circle>
                <path d="M28.2498047,16.5072654 C28.2498047,17.1984938 27.6904472,17.7572263 26.9998438,17.7572263 L23.2499609,17.7572263 C22.5593575,17.7572263 22,17.1984938 22,16.5072654 L22,12.7573826 C22,12.0667792 22.5587325,11.5074216 23.2499609,11.5074216 L24.8549108,13.1123715 L28.9672823,9 L30.7566014,10.7899441 L26.6442299,14.9035655 L28.2491797,16.5066404 L28.2498047,16.5072654 Z M16.5072654,28.2491797 L14.9023156,26.6448548 L10.7899441,30.7566014 L9,28.9672823 L13.1123715,24.8549108 L11.5080466,23.2499609 C11.5080466,22.5593575 12.0674041,22 12.7580076,22 L16.5078904,22 C17.1978688,22 17.7578513,22.5593575 17.7578513,23.2499609 L17.7578513,26.9998438 C17.7578513,27.6904472 17.1978688,28.2498047 16.5078904,28.2498047 L16.5072654,28.2491797 Z M11.5067967,16.5072654 C11.5067967,17.1984938 12.0661542,17.7572263 12.7567576,17.7572263 L16.5066404,17.7572263 C17.1972438,17.7572263 17.7566014,17.1984938 17.7566014,16.5072654 L17.7566014,12.7573826 C17.7566014,12.0667792 17.1978688,11.5074216 16.5066404,11.5074216 L14.9016906,13.1123715 L10.7893191,9 L9,10.7899441 L13.1123715,14.9035655 L11.5074216,16.5066404 L11.5067967,16.5072654 Z M23.2505859,28.2491797 L24.8555358,26.6448548 L28.9679073,30.7566014 L30.7578513,28.9672823 L26.6454798,24.8549108 L28.2498047,23.2499609 C28.2498047,22.5593575 27.6904472,22 26.9998438,22 L23.2499609,22 C22.5599825,22 22,22.5593575 22,23.2499609 L22,26.9998438 C22,27.6904472 22.5599825,28.2498047 23.2499609,28.2498047 L23.2505859,28.2491797 Z" id="Page-1" fill="#FFFFFF"></path>
            </g>
        </g>
    </g>
</svg>