<?xml version="1.0" encoding="UTF-8" standalone="no"?>
<svg width="18px" height="18px" viewBox="0 0 18 18" version="1.1" xmlns="http://www.w3.org/2000/svg" xmlns:xlink="http://www.w3.org/1999/xlink">
    <!-- Generator: Sketch 3.6.1 (26313) - http://www.bohemiancoding.com/sketch -->
    <title>refresh</title>
    <desc>Created with Sketch.</desc>
    <defs></defs>
    <g id="Page-1" stroke="none" stroke-width="1" fill="none" fill-rule="evenodd">
        <g id="material" transform="translate(-147.000000, -183.000000)" fill="#FFFFFF">
            <g id="refresh" transform="translate(147.000000, 183.000000)">
                <g id="图形">
                    <path d="M17.9993569,7.71448925 L17.9993569,0.0013203457 L15.351169,2.64950833 C14.8073906,2.10444439 14.1980502,1.60951605 13.5000084,1.20714574 C9.19606017,-1.27778015 3.69271415,0.196720629 1.20778822,4.50066888 C-1.27713769,8.80461714 0.197363092,14.3079632 4.50131135,16.7928891 C8.8052596,19.277815 14.3086056,17.8020287 16.7935315,13.4993659 L14.5669968,12.2138378 C12.7916824,15.2888211 8.86182284,16.3416687 5.78683949,14.5663543 C2.71185615,12.7910399 1.6590086,8.86118038 3.43432297,5.78619703 C5.20963734,2.71121368 9.13949691,1.65836614 12.2144803,3.43368051 C12.7145507,3.72292434 13.1374895,4.08415776 13.525719,4.47495831 L10.286188,7.71448925 L17.9993569,7.71448925 L17.9993569,7.71448925 Z" id="Shape"></path>
                </g>
            </g>
        </g>
    </g>
</svg>