<?xml version="1.0" encoding="UTF-8" standalone="no"?>
<svg width="25px" height="22px" viewBox="0 0 25 22" version="1.1" xmlns="http://www.w3.org/2000/svg" xmlns:xlink="http://www.w3.org/1999/xlink" xmlns:sketch="http://www.bohemiancoding.com/sketch/ns">
    <!-- Generator: Sketch 3.3.2 (12043) - http://www.bohemiancoding.com/sketch -->
    <title>Icon/Subnet</title>
    <desc>Created with Sketch.</desc>
    <defs></defs>
    <g id="Visual-Designs" stroke="none" stroke-width="1" fill="none" fill-rule="evenodd" sketch:type="MSPage">
        <g id="4.0-Icons" sketch:type="MSArtboardGroup" transform="translate(-445.000000, -541.000000)" fill="#333333">
            <g id="Icons" sketch:type="MSLayerGroup" transform="translate(400.000000, 145.000000)">
                <g id="Icon/Subnet" transform="translate(45.000000, 396.000000)" sketch:type="MSShapeGroup">
                    <path d="M12.988,17 L10.988,17 L10.988,19 L12.988,19 L12.988,17 Z M15.988,20 L7.988,20 L7.988,16 L15.988,16 L15.988,20 Z M10.988,11.031 C10.988,10.481 11.436,10.031 11.988,10.031 C12.54,10.031 12.988,10.481 12.988,11.031 L12.988,14 L10.988,14 L10.988,11.031 Z M15.988,14 L14.988,14 L14.988,11.031 C14.988,9.377 13.643,8.031 11.988,8.031 C10.334,8.031 8.988,9.377 8.988,11.031 L8.988,14 L7.988,14 C6.885,14 6,14.896 6,16 L6,20 C6,21.104 6.885,22 7.988,22 L15.988,22 C17.091,22 17.988,21.104 17.988,20 L17.988,16 C17.988,14.896 17.091,14 15.988,14 L15.988,14 Z M19.999,8.111 C20,8.074 20,8.037 20,8 C20,3.589 16.411,0 12,0 C7.589,0 4,3.589 4,8 C4,8.033 4,8.066 4.001,8.1 C3.046,8.294 2.172,8.765 1.477,9.469 C0.523,10.408 0,11.662 0,13 C0,15.414 1.709,17.434 3.988,17.898 L3.988,15.815 C2.826,15.401 2,14.302 2,13 C2,12.201 2.313,11.453 2.891,10.883 C3.453,10.313 4.201,10 5.08,10 L6.287,10 L6.062,8.815 C6.02,8.592 6,8.325 6,8 C6,4.691 8.691,2 12,2 C15.309,2 18,4.691 18,8 C18,8.325 17.979,8.592 17.937,8.815 L17.793,10 L19,10 C20.654,10 22,11.346 22,13 C22,14.302 21.162,15.401 20,15.816 L20,17.898 C22.279,17.434 24,15.414 24,13 C24,10.604 22.306,8.596 19.999,8.111 L19.999,8.111 Z" id="Subnet"></path>
                </g>
            </g>
        </g>
    </g>
</svg>