<?xml version="1.0" encoding="UTF-8" standalone="no"?>
<svg width="25px" height="24px" viewBox="0 0 25 24" version="1.1" xmlns="http://www.w3.org/2000/svg" xmlns:xlink="http://www.w3.org/1999/xlink" xmlns:sketch="http://www.bohemiancoding.com/sketch/ns">
    <!-- Generator: Sketch 3.3.2 (12043) - http://www.bohemiancoding.com/sketch -->
    <title>Icon/VPC</title>
    <desc>Created with Sketch.</desc>
    <defs></defs>
    <g id="Visual-Designs" stroke="none" stroke-width="1" fill="none" fill-rule="evenodd" sketch:type="MSPage">
        <g id="4.0-Icons" sketch:type="MSArtboardGroup" transform="translate(-447.000000, -390.000000)" fill="#333333">
            <g id="Icons" sketch:type="MSLayerGroup" transform="translate(400.000000, 145.000000)">
                <g id="Icon/VPC" transform="translate(47.000000, 245.000000)" sketch:type="MSShapeGroup">
                    <path d="M21,22 L13,22 L13,20 C13,19.447 12.553,19 12,19 C11.447,19 11,19.447 11,20 L11,22 L3.002,22 C2.449,22 2.002,22.447 2.002,23 C2.002,23.553 2.449,24 3.002,24 L21,24 C21.553,24 22,23.553 22,23 C22,22.447 21.553,22 21,22 M19,16 L5,16 C3.346,16 2,14.654 2,13 C2,12.201 2.314,11.453 2.891,10.883 C3.453,10.313 4.201,10 5.08,10 L6.287,10 L6.062,8.815 C6.021,8.592 6,8.325 6,8 C6,4.691 8.691,2 12,2 C15.309,2 18,4.691 18,8 C18,8.325 17.98,8.592 17.937,8.815 L17.793,10 L19,10 C20.654,10 22,11.346 22,13 C22,14.654 20.654,16 19,16 M19.999,8.111 C20,8.074 20,8.037 20,8 C20,3.589 16.411,0 12,0 C7.589,0 4,3.589 4,8 C4,8.033 4,8.066 4.001,8.1 C3.046,8.294 2.172,8.765 1.478,9.469 C0.523,10.408 0,11.662 0,13 C0,15.757 2.243,18 5,18 L19,18 C21.757,18 24,15.757 24,13 C24,10.604 22.306,8.596 19.999,8.111" id="VPC"></path>
                </g>
            </g>
        </g>
    </g>
</svg>