<?xml version="1.0" encoding="UTF-8" standalone="no"?>
<svg width="16px" height="16px" viewBox="0 0 16 16" version="1.1" xmlns="http://www.w3.org/2000/svg" xmlns:xlink="http://www.w3.org/1999/xlink" xmlns:sketch="http://www.bohemiancoding.com/sketch/ns">
    <!-- Generator: Sketch 3.3.2 (12043) - http://www.bohemiancoding.com/sketch -->
    <title>Icon/Plus</title>
    <desc>Created with Sketch.</desc>
    <defs></defs>
    <g id="Visual-Designs" stroke="none" stroke-width="1" fill="none" fill-rule="evenodd" sketch:type="MSPage">
        <g id="5.0-Topology" sketch:type="MSArtboardGroup" transform="translate(-1017.000000, -127.000000)" fill="#999999">
            <g id="Toolbar" sketch:type="MSLayerGroup" transform="translate(223.000000, 117.000000)">
                <g id="Icon/Minus-+-Icon/Plus" transform="translate(794.000000, 10.000000)" sketch:type="MSShapeGroup">
                    <path d="M8,14.6666667 C4.324,14.6666667 1.33333333,11.676 1.33333333,8 C1.33333333,4.324 4.324,1.33333333 8,1.33333333 C11.676,1.33333333 14.6666667,4.324 14.6666667,8 C14.6666667,11.676 11.676,14.6666667 8,14.6666667 M8,0 C3.58866667,0 0,3.58866667 0,8 C0,12.4113333 3.58866667,16 8,16 C12.4113333,16 16,12.4113333 16,8 C16,3.58866667 12.4113333,0 8,0 M11.3333333,7.33333333 L8.66666667,7.33333333 L8.66666667,4.66666667 C8.66666667,4.30066667 8.36666667,4 8,4 C7.63333333,4 7.33333333,4.30066667 7.33333333,4.66666667 L7.33333333,7.33333333 L4.66666667,7.33333333 C4.3,7.33333333 4,7.63333333 4,8 C4,8.36666667 4.3,8.66666667 4.66666667,8.66666667 L7.33333333,8.66666667 L7.33333333,11.3333333 C7.33333333,11.7006667 7.63333333,12 8,12 C8.36666667,12 8.66666667,11.7006667 8.66666667,11.3333333 L8.66666667,8.66666667 L11.3333333,8.66666667 C11.7,8.66666667 12,8.36666667 12,8 C12,7.63333333 11.7,7.33333333 11.3333333,7.33333333" id="Icon/Plus"></path>
                </g>
            </g>
        </g>
    </g>
</svg>